<svg width="257" height="132" viewBox="0 0 257 132" fill="none" xmlns="http://www.w3.org/2000/svg">
<path d="M36.9263 22.1468C78.0979 4.29148 117.586 -5.31441 155.39 -6.67083C193.194 -8.02724 227.746 4.12326 259.046 29.7807C290.345 55.4381 286.613 76.1301 247.848 91.8569C209.084 107.584 171.5 117.503 135.096 121.616C98.6929 125.729 62.9374 114.643 27.83 88.3577C-7.27733 62.0725 -4.24524 40.0022 36.9263 22.1468Z" fill="#BCBCF7"/>
<path d="M60.1253 -23.9193C106.785 -32.9463 150.54 -34.7261 191.389 -29.2587C232.238 -23.7912 267.797 -6.54593 298.065 22.4773C328.333 51.5004 321.573 69.7655 277.785 77.2725C233.997 84.7795 192.249 87.1843 152.541 84.4868C112.833 81.7893 75.8387 65.304 41.5574 35.0308C7.27602 4.75768 13.4653 -14.8924 60.1253 -23.9193Z" fill="#3737A7"/>
</svg>
