<svg width="428" height="616" viewBox="0 0 428 616" fill="none" xmlns="http://www.w3.org/2000/svg">
<path d="M389.366 258.429C389.366 258.429 374.013 208.63 392.247 171.977C399.902 156.596 402.441 139.324 398.906 122.63C397.216 114.703 394.768 106.942 391.594 99.4425" stroke="#535461" stroke-width="2" stroke-miterlimit="10"/>
<path d="M402.914 76.3089C402.914 82.4148 391.345 100.091 391.345 100.091C391.345 100.091 379.776 82.391 379.776 76.3089C379.74 74.8362 380.013 73.3717 380.578 72.0012C381.143 70.6307 381.989 69.382 383.067 68.3284C384.144 67.2748 385.431 66.4376 386.852 65.866C388.273 65.2944 389.8 65 391.342 65C392.884 65 394.41 65.2944 395.831 65.866C397.252 66.4376 398.539 67.2748 399.617 68.3284C400.694 69.382 401.54 70.6307 402.106 72.0012C402.671 73.3717 402.944 74.8362 402.908 76.3089H402.914Z" fill="#BEB24F"/>
<path d="M422.057 110.115C418.584 115.239 398.807 124.086 398.807 124.086C398.807 124.086 399.167 103.224 402.64 98.0988C404.343 95.7187 406.953 94.0687 409.912 93.5008C412.871 92.9328 415.945 93.492 418.478 95.059C421.012 96.626 422.804 99.0767 423.472 101.888C424.141 104.7 423.633 107.65 422.057 110.109V110.115Z" fill="#BEB24F"/>
<path d="M421.217 167.886C415.51 170.633 393.766 168.736 393.766 168.736C393.766 168.736 405.098 150.9 410.805 148.153C412.165 147.465 413.655 147.043 415.187 146.912C416.72 146.781 418.264 146.943 419.73 147.389C421.197 147.835 422.555 148.556 423.726 149.51C424.897 150.464 425.857 151.631 426.55 152.943C427.242 154.256 427.654 155.687 427.761 157.154C427.868 158.62 427.667 160.092 427.171 161.484C426.675 162.875 425.894 164.158 424.872 165.257C423.851 166.357 422.61 167.251 421.223 167.886H421.217Z" fill="#BEB24F"/>
<path d="M410.282 211.46C405.148 215.087 383.373 216.728 383.373 216.728C383.373 216.728 391.388 197.322 396.523 193.689C397.743 192.812 399.133 192.175 400.613 191.814C402.092 191.453 403.632 191.375 405.143 191.585C406.654 191.795 408.107 192.289 409.417 193.038C410.728 193.787 411.87 194.777 412.778 195.949C413.686 197.122 414.342 198.455 414.708 199.872C415.075 201.288 415.144 202.759 414.912 204.201C414.68 205.643 414.151 207.027 413.357 208.273C412.562 209.519 411.517 210.602 410.282 211.46V211.46Z" fill="#BEB24F"/>
<path d="M374.517 125.269C379.097 129.52 400.449 133.926 400.449 133.926C400.449 133.926 395.222 113.67 390.642 109.413C388.425 107.452 385.494 106.397 382.475 106.473C379.455 106.549 376.587 107.751 374.482 109.82C372.377 111.89 371.203 114.664 371.211 117.55C371.219 120.436 372.407 123.204 374.523 125.264L374.517 125.269Z" fill="#BEB24F"/>
<path d="M362.406 176.382C368.113 179.129 389.857 177.232 389.857 177.232C389.857 177.232 378.525 159.396 372.818 156.649C371.458 155.961 369.968 155.539 368.436 155.408C366.903 155.277 365.359 155.439 363.893 155.885C362.426 156.331 361.068 157.052 359.897 158.006C358.726 158.96 357.766 160.127 357.073 161.439C356.38 162.752 355.969 164.183 355.862 165.65C355.755 167.116 355.955 168.588 356.451 169.98C356.948 171.371 357.729 172.654 358.75 173.753C359.772 174.853 361.013 175.747 362.4 176.382H362.406Z" fill="#BEB24F"/>
<path d="M357.77 227.608C362.904 231.235 384.68 232.876 384.68 232.876C384.68 232.876 376.664 213.464 371.523 209.837C370.303 208.96 368.913 208.323 367.433 207.962C365.954 207.6 364.414 207.523 362.903 207.733C361.392 207.943 359.939 208.437 358.629 209.186C357.318 209.935 356.176 210.924 355.268 212.097C354.36 213.27 353.704 214.603 353.338 216.019C352.971 217.436 352.902 218.907 353.134 220.349C353.366 221.791 353.895 223.175 354.689 224.421C355.484 225.667 356.529 226.75 357.764 227.608H357.77Z" fill="#BEB24F"/>
<path d="M402.914 76.3089C402.914 82.4148 391.345 100.091 391.345 100.091C391.345 100.091 379.776 82.391 379.776 76.3089C379.74 74.8362 380.013 73.3717 380.578 72.0012C381.143 70.6307 381.989 69.382 383.067 68.3284C384.144 67.2748 385.431 66.4376 386.852 65.866C388.273 65.2944 389.8 65 391.342 65C392.884 65 394.41 65.2944 395.831 65.866C397.252 66.4376 398.539 67.2748 399.617 68.3284C400.694 69.382 401.54 70.6307 402.106 72.0012C402.671 73.3717 402.944 74.8362 402.908 76.3089H402.914Z" fill="#BEB24F"/>
<path d="M422.057 110.115C418.584 115.239 398.807 124.086 398.807 124.086C398.807 124.086 399.167 103.224 402.64 98.0988C404.343 95.7187 406.953 94.0687 409.912 93.5008C412.871 92.9328 415.945 93.492 418.478 95.059C421.012 96.626 422.804 99.0767 423.472 101.888C424.141 104.7 423.633 107.65 422.057 110.109V110.115Z" fill="#BEB24F"/>
<path d="M421.217 167.886C415.51 170.633 393.766 168.736 393.766 168.736C393.766 168.736 405.098 150.9 410.805 148.153C412.165 147.465 413.655 147.043 415.187 146.912C416.72 146.781 418.264 146.943 419.73 147.389C421.197 147.835 422.555 148.556 423.726 149.51C424.897 150.464 425.857 151.631 426.55 152.943C427.242 154.256 427.654 155.687 427.761 157.154C427.868 158.62 427.667 160.092 427.171 161.484C426.675 162.875 425.894 164.158 424.872 165.257C423.851 166.357 422.61 167.251 421.223 167.886H421.217Z" fill="#BEB24F"/>
<path d="M410.282 211.46C405.148 215.087 383.373 216.728 383.373 216.728C383.373 216.728 391.388 197.322 396.523 193.689C397.743 192.812 399.133 192.175 400.613 191.814C402.092 191.453 403.632 191.375 405.143 191.585C406.654 191.795 408.107 192.289 409.417 193.038C410.728 193.787 411.87 194.777 412.778 195.949C413.686 197.122 414.342 198.455 414.708 199.872C415.075 201.288 415.144 202.759 414.912 204.201C414.68 205.643 414.151 207.027 413.357 208.273C412.562 209.519 411.517 210.602 410.282 211.46V211.46Z" fill="#BEB24F"/>
<path d="M374.517 125.269C379.097 129.52 400.449 133.926 400.449 133.926C400.449 133.926 395.222 113.67 390.642 109.413C388.425 107.452 385.494 106.397 382.475 106.473C379.455 106.549 376.587 107.751 374.482 109.82C372.377 111.89 371.203 114.664 371.211 117.55C371.219 120.436 372.407 123.204 374.523 125.264L374.517 125.269Z" fill="#BEB24F"/>
<path d="M362.406 176.382C368.113 179.129 389.857 177.232 389.857 177.232C389.857 177.232 378.525 159.396 372.818 156.649C371.458 155.961 369.968 155.539 368.436 155.408C366.903 155.277 365.359 155.439 363.893 155.885C362.426 156.331 361.068 157.052 359.897 158.006C358.726 158.96 357.766 160.127 357.073 161.439C356.38 162.752 355.969 164.183 355.862 165.65C355.755 167.116 355.955 168.588 356.451 169.98C356.948 171.371 357.729 172.654 358.75 173.753C359.772 174.853 361.013 175.747 362.4 176.382H362.406Z" fill="#BEB24F"/>
<path d="M357.77 227.608C362.904 231.235 384.68 232.876 384.68 232.876C384.68 232.876 376.664 213.464 371.523 209.837C370.303 208.96 368.913 208.323 367.433 207.962C365.954 207.6 364.414 207.523 362.903 207.733C361.392 207.943 359.939 208.437 358.629 209.186C357.318 209.935 356.176 210.924 355.268 212.097C354.36 213.27 353.704 214.603 353.338 216.019C352.971 217.436 352.902 218.907 353.134 220.349C353.366 221.791 353.895 223.175 354.689 224.421C355.484 225.667 356.529 226.75 357.764 227.608H357.77Z" fill="#BEB24F"/>
<path d="M237.183 543.309L237.509 353.416C237.51 352.445 237.355 351.483 237.05 350.585C236.746 349.687 236.299 348.871 235.735 348.184C235.172 347.496 234.502 346.95 233.764 346.577C233.026 346.204 232.236 346.012 231.436 346.01C230.637 346.009 229.846 346.199 229.107 346.569C228.368 346.94 227.696 347.483 227.13 348.169C226.564 348.855 226.114 349.669 225.807 350.566C225.499 351.462 225.34 352.424 225.339 353.395L225.013 543.289C224.887 552.926 237.277 552.849 237.183 543.309Z" fill="#42405A"/>
<path d="M190.701 177.553L229.708 196.333L236.803 149.528L248.248 150.233C248.248 150.233 252.324 195.759 252.286 203.076C252.247 210.393 246.714 217.147 244.216 218.679C241.717 220.211 230.663 218.54 216.476 214.694C202.288 210.847 181.078 201.812 174.238 196.982C167.399 192.151 164.134 189.191 163.786 184.659" fill="#FEBD99"/>
<path d="M51.8174 275.081C51.9074 275.281 52.9374 274.981 54.1674 275.241C55.3974 275.501 56.2474 276.141 56.3974 275.991C56.5474 275.841 55.8074 274.801 54.3174 274.511C52.8274 274.221 51.7374 274.911 51.8174 275.081Z" fill="#263238"/>
<path d="M48.2174 278.511C48.2174 278.721 49.2174 278.731 50.2174 279.311C51.2174 279.891 51.7674 280.711 51.9574 280.621C52.1474 280.531 51.8474 279.361 50.5774 278.621C49.3074 277.881 48.1474 278.321 48.2174 278.511Z" fill="#263238"/>
<path d="M47.7374 284.581C47.9374 284.581 47.8274 283.451 46.8874 282.581C45.9474 281.711 44.8874 281.581 44.8374 281.811C44.7874 282.041 45.6174 282.371 46.3774 283.121C47.1374 283.871 47.5574 284.651 47.7374 284.581Z" fill="#263238"/>
<path d="M1.87741 3.5106L2.63739 4.8206C2.70598 4.97034 2.82196 5.09334 2.96741 5.17061C3.07089 5.18567 3.17647 5.1743 3.27438 5.13759C3.37229 5.10087 3.45934 5.03999 3.5274 4.9606C3.78824 4.69899 3.99218 4.38629 4.1264 4.04211C4.26063 3.69794 4.32226 3.32973 4.3074 2.9606C4.2854 2.22335 4.07541 1.50395 3.69739 0.870605C3.63193 0.715142 3.53639 0.574148 3.41626 0.455734C3.29613 0.337319 3.15379 0.243817 2.99741 0.180602C2.65207 0.108829 2.29236 0.177176 1.99741 0.370605C1.58741 0.580605 1.1874 0.800603 0.807404 1.0406C0.617404 1.1606 0.4174 1.3106 0.3974 1.5206C0.397841 1.69207 0.450124 1.8594 0.547394 2.00061C0.887394 2.55061 1.5474 2.95061 1.8374 3.50061" fill="#815144"/>
<path d="M248.645 151.475C248.645 151.475 243.223 138.105 242.061 137.284C240.899 136.462 236.021 132.159 236.021 132.159L226.83 129.019C226.83 129.019 225.681 132.039 227.478 132.879C229.276 133.719 231.146 134.881 231.146 134.881L233.772 137.28C233.772 137.28 228.01 137.808 227.624 138.423C227.366 138.892 227.209 139.421 227.168 139.962C226.17 140.819 225.449 142.049 225.141 143.424L222.813 148.05L224.883 153.816C225.627 153.294 226.208 152.496 226.524 151.561C226.955 150.098 225.902 148.37 225.902 148.37L227.813 147.069L229.471 147.411C229.471 147.411 236.58 156.329 238.69 157.54L240.594 160.883" fill="#FEBD99"/>
<path d="M206.25 260.228H150.25V316.228H206.25V260.228Z" fill="#FEBD99"/>
<path d="M112.002 590.558L123.036 590.557L128.284 548L112 548.001L112.002 590.558Z" fill="#FEBD99"/>
<path d="M145.61 607.358L129.03 595.908V588.438L127.15 588.548L115.33 589.258L111.59 589.478L109.46 615.018L109.39 615.868H117.22L117.38 615.018L118.62 608.478L121.79 615.018L122.2 615.868H142.96C144.196 615.865 145.381 615.374 146.256 614.501C147.131 613.627 147.625 612.444 147.63 611.208C147.631 610.45 147.447 609.704 147.095 609.033C146.743 608.362 146.234 607.787 145.61 607.358V607.358Z" fill="#2F2E41"/>
<path d="M179.853 587.917L190.457 590.966L207.265 551.518L191.615 547.017L179.853 587.917Z" fill="#FEBD99"/>
<path d="M205.52 608.248L192.75 592.658L194.82 585.478L192.98 585.068L182.73 582.768L181.42 582.478L177.77 581.658L168.36 606.408L175.88 608.578L179.27 601.858L180.66 609.948L185.4 611.308L198.29 615.018L200.62 615.688C201.577 615.965 202.597 615.929 203.531 615.584C204.465 615.24 205.265 614.606 205.813 613.774C206.36 612.942 206.628 611.957 206.575 610.963C206.522 609.968 206.153 609.017 205.52 608.248V608.248Z" fill="#2F2E41"/>
<path d="M407.934 219H215.076C213.73 219.003 212.44 219.826 211.489 221.29C210.537 222.754 210.002 224.739 210 226.809V347.191C210.002 349.261 210.537 351.246 211.489 352.71C212.44 354.174 213.73 354.997 215.076 355H407.934C409.278 354.994 410.566 354.169 411.516 352.705C412.465 351.241 412.999 349.259 413 347.191V226.809C412.999 224.741 412.465 222.759 411.516 221.295C410.566 219.831 409.278 219.006 407.934 219V219Z" fill="#484664"/>
<path d="M208.135 149.605C216.01 135.198 210.716 117.135 196.309 109.26C181.902 101.384 163.839 106.679 155.964 121.086C148.088 135.492 153.383 153.555 167.79 161.431C182.196 169.306 200.26 164.012 208.135 149.605Z" fill="#FEBD99"/>
<path d="M187.021 99.2276H167.816C155.227 99.2276 145.02 110.71 145.02 124.873C135.52 134.412 138.372 146.362 145.909 159.228C159.513 160.92 172.818 164.479 185.45 169.803L187.243 162.149L190.778 172.23C193.923 173.753 197.041 175.419 200.132 177.228C196.524 160.276 195.039 143.365 197.516 130.228H204.021V123.11L206.229 130.228H218.021C218.021 126.157 217.219 122.126 215.661 118.364C214.103 114.603 211.82 111.186 208.941 108.307C206.062 105.429 202.645 103.145 198.884 101.587C195.123 100.029 191.091 99.2276 187.021 99.2276Z" fill="#2F2E41"/>
<path d="M184.25 169.228L148.295 167.669L147.328 171.342C139.373 201.564 138.144 233.164 143.729 263.912V263.912C144.796 264.918 145.577 266.19 145.989 267.597C146.401 269.004 146.43 270.496 146.073 271.919L145.557 273.978L145.605 274.053C147.3 276.728 147.875 279.963 147.206 283.058V283.058L149.004 292.96L207.25 267.228L220.25 222.228L184.25 169.228Z" fill="#8F8F8F"/>
<path d="M273.357 264.071C272.953 264.516 272.59 264.996 272.272 265.506L219.769 230.749L182.259 183.054C179.899 180.054 176.49 178.06 172.718 177.474C168.946 176.889 165.092 177.756 161.934 179.9C158.776 182.044 156.549 185.306 155.701 189.028C154.854 192.749 155.449 196.654 157.367 199.954V199.954C163.583 210.649 171.428 220.309 180.621 228.585L210.967 255.908L274.904 278.944C276.47 280.067 278.326 280.714 280.251 280.806C282.175 280.899 284.085 280.434 285.751 279.466C287.418 278.499 288.769 277.07 289.642 275.353C290.516 273.636 290.874 271.702 290.675 269.786C290.475 267.87 289.726 266.052 288.518 264.551C287.31 263.05 285.694 261.931 283.864 261.327C282.034 260.723 280.069 260.661 278.205 261.148C276.341 261.635 274.657 262.65 273.357 264.071L273.357 264.071Z" fill="#FEBD99"/>
<path d="M329.872 120.803H321.368V112.299C321.368 111.547 321.07 110.826 320.538 110.295C320.006 109.763 319.285 109.464 318.534 109.464C317.782 109.464 317.061 109.763 316.529 110.295C315.998 110.826 315.699 111.547 315.699 112.299V120.803H307.195C306.444 120.804 305.725 121.103 305.194 121.635C304.664 122.166 304.366 122.886 304.366 123.637C304.366 124.388 304.664 125.108 305.194 125.64C305.725 126.171 306.444 126.47 307.195 126.472H315.699V134.975C315.699 135.727 315.998 136.448 316.529 136.98C317.061 137.511 317.782 137.81 318.534 137.81C319.285 137.81 320.006 137.511 320.538 136.98C321.07 136.448 321.368 135.727 321.368 134.975V126.472H329.872C330.245 126.472 330.614 126.4 330.958 126.258C331.303 126.115 331.616 125.907 331.88 125.643C332.143 125.38 332.353 125.067 332.495 124.723C332.638 124.379 332.712 124.01 332.712 123.637C332.712 123.264 332.638 122.895 332.495 122.551C332.353 122.207 332.143 121.894 331.88 121.631C331.616 121.368 331.303 121.159 330.958 121.017C330.614 120.875 330.245 120.802 329.872 120.803V120.803Z" fill="white"/>
<path d="M244.239 485.166C245.173 482.703 245.518 480.056 245.245 477.436C244.972 474.816 244.09 472.297 242.669 470.079L217.25 338.228L207.25 288.228H147.25C147.25 288.228 109.75 329.728 117.75 382.728L115.511 457.368C113.387 462.487 112.863 468.13 114.007 473.554L114.898 477.776L114.555 478.412C112.918 481.441 112.038 484.822 111.991 488.265C111.945 491.708 112.732 495.111 114.286 498.184L111.75 582.728L129.75 581.728L156.25 483.228L173.75 394.728L203.25 463.228L204.25 479.228L203.765 493.331L180.75 575.728L200.25 583.228L244.239 485.166Z" fill="#7E752B"/>
<path d="M396.184 542.861L396.544 333.317C396.546 332.245 396.39 331.184 396.086 330.193C395.782 329.203 395.335 328.302 394.771 327.544C394.208 326.785 393.538 326.183 392.8 325.771C392.063 325.36 391.272 325.148 390.473 325.146C389.674 325.145 388.882 325.355 388.143 325.763C387.404 326.172 386.732 326.772 386.166 327.529C385.6 328.286 385.15 329.184 384.842 330.174C384.535 331.163 384.376 332.224 384.374 333.296L384.014 542.84C383.886 553.475 396.276 553.389 396.184 542.861Z" fill="#4A486A"/>
</svg>
