<svg width="285" height="105" viewBox="0 0 285 105" fill="none" xmlns="http://www.w3.org/2000/svg">
<path opacity="0.7" d="M20.4517 41.681C20.7633 40.8082 21.1522 39.9625 21.614 39.1534" stroke="#FFC0CB" stroke-width="2" stroke-linecap="round" stroke-linejoin="round"/>
<path opacity="0.7" d="M25.5217 55.3071C23.0835 55.0697 20.1778 54.3897 19.1424 51.9904C18.1805 49.7129 18.9553 46.8581 19.5699 44.5743" stroke="#FFC0CB" stroke-width="2" stroke-linecap="round" stroke-linejoin="round"/>
<path d="M66.5766 33.6812H61.3462L58.7277 38.0372L61.3462 42.3932H66.5766L69.1952 38.0372L66.5766 33.6812Z" fill="#FF8585"/>
<path opacity="0.7" d="M66.5766 33.6812H61.3462L58.7277 38.0372L61.3462 42.3932H66.5766L69.1952 38.0372L66.5766 33.6812Z" fill="#FFC0CB"/>
<circle cx="42.5" cy="43.5" r="41.5" fill="#FFC0CB" stroke="#FF8585" stroke-width="2"/>
<path d="M25.5218 26.9707C25.5218 26.9707 46.3832 57.3728 25.5218 57.3728C4.66031 57.3728 25.5218 26.9707 25.5218 26.9707Z" fill="#FF8585"/>
<path d="M40.0239 6.45465V43.1758H39.9771L29.3427 45.6328L39.9771 48.0899H40.0239V81.4493C50.3773 81.4493 60.3066 77.4994 67.6276 70.4685C74.9485 63.4376 79.0614 53.9016 79.0614 43.9584C79.0614 34.0152 74.9485 24.4792 67.6276 17.4483C60.3066 10.4174 50.3773 6.46748 40.0239 6.46748V6.45465Z" fill="#263238"/>
<path d="M50.2842 47.4611L54.5794 48.8276L57.9594 45.9407L57.0443 41.6874L52.7491 40.3209L49.3757 43.2078L50.2842 47.4611Z" fill="#FF8585"/>
<path d="M62.1585 28.25L66.4537 29.6165L69.8337 26.7296L68.9186 22.4763L64.6234 21.1098L61.25 23.9967L62.1585 28.25Z" fill="#FF8585"/>
<path d="M47.1585 67.819L51.4537 69.1855L54.8337 66.2986L53.9186 62.0452L49.6234 60.6788L46.25 63.5657L47.1585 67.819Z" fill="#FF8585"/>
<path d="M60.9085 61.9569L65.2037 63.3234L68.5837 60.4365L67.6686 56.1832L63.3734 54.8167L60 57.7036L60.9085 61.9569Z" fill="#FF8585"/>
<path d="M64.6585 44.3707L68.9537 45.7372L72.3337 42.8503L71.4186 38.597L67.1234 37.2305L63.75 40.1174L64.6585 44.3707Z" fill="#FF8585"/>
<path d="M49.6585 28.25L53.9537 29.6165L57.3337 26.7296L56.4186 22.4763L52.1234 21.1098L48.75 23.9967L49.6585 28.25Z" fill="#FF8585"/>
<path opacity="0.2" d="M57.9595 45.9408L53.6643 44.5743L50.2843 47.4612L54.5795 48.8276L57.9595 45.9408Z" fill="#FF8585"/>
<path opacity="0.2" d="M70.1752 26.8728L65.88 25.5064L62.5 28.3932L66.7952 29.7597L70.1752 26.8728Z" fill="#FF8585"/>
<path opacity="0.2" d="M72.6752 42.9935L68.38 41.627L65 44.5139L69.2952 45.8804L72.6752 42.9935Z" fill="#FF8585"/>
<path opacity="0.2" d="M68.9252 60.5797L64.63 59.2133L61.25 62.1002L65.5452 63.4666L68.9252 60.5797Z" fill="#FF8585"/>
<path opacity="0.2" d="M55.1752 66.4418L50.88 65.0753L47.5 67.9622L51.7952 69.3287L55.1752 66.4418Z" fill="#FF8585"/>
<path opacity="0.2" d="M57.6752 26.8728L53.38 25.5064L50 28.3932L54.2952 29.7597L57.6752 26.8728Z" fill="#FF8585"/>
<circle cx="141.5" cy="42.5" r="41.5" fill="#D8D868" stroke="#9E9E27" stroke-width="2"/>
<path d="M144.129 6.64619C143.944 6.7938 143.898 7.12182 143.967 7.44984L144.082 8.00747L143.137 7.84346C141.568 7.58105 136.632 7.63025 134.326 7.94187C131.419 8.33549 128.444 9.05713 125.907 9.95918C123.623 10.7792 120.694 12.1077 120.025 12.6325C119.541 13.0098 119.748 13.5838 120.394 13.6494C120.763 13.6822 120.371 13.9446 118.825 14.6991C117.718 15.2403 116.45 16.0111 116.035 16.3883C115.343 17.0444 115.319 17.1264 115.596 17.4544C115.781 17.6348 116.265 17.8644 116.657 17.9464C117.211 18.0612 117.349 18.1596 117.234 18.3565C116.219 20.0786 115.712 22.1943 115.712 24.5232C115.712 27.5738 116.427 29.7059 118.433 32.4777L119.448 33.8881L118.964 34.5278C117.972 35.8891 118.779 38.0212 120.671 39.0872C121.34 39.4809 121.801 39.6121 122.885 39.6613C124.038 39.7269 124.269 39.7925 124.592 40.1697C125.215 40.8913 127.913 42.761 129.021 43.2203C129.597 43.4663 130.058 43.7123 130.058 43.7779C130.058 43.8435 129.459 44.0895 128.744 44.3355C126.091 45.2048 123.554 46.9761 122.009 49.0426C120.994 50.4039 120.186 52.2244 119.425 54.9961C118.087 59.818 115.55 65.9684 114.581 66.772C113.912 67.3132 113.843 67.7561 114.258 68.5761C114.466 68.9697 114.743 69.6094 114.858 70.003C115.066 70.7738 115.781 71.5775 116.45 71.8399C116.68 71.9219 117.096 72.3319 117.372 72.7419C117.649 73.152 118.249 73.6604 118.687 73.8736C119.125 74.0868 119.633 74.4148 119.817 74.6116C120.002 74.7921 120.671 75.1529 121.294 75.3989C122.401 75.8417 122.424 75.8745 122.493 76.6782C122.562 77.3834 122.631 77.4982 123.07 77.5474C123.392 77.5802 123.692 77.4818 123.877 77.2686C124.177 76.9242 124.223 76.9242 144.036 76.9242H163.919L164.034 77.2686C164.127 77.531 164.311 77.5966 164.819 77.5474L165.464 77.4982V75.5629V73.6276L166.433 73.316C166.964 73.152 167.54 72.8403 167.725 72.6271C168.417 71.8891 168.855 69.7078 168.97 66.4604C169.109 63.1802 168.74 55.357 168.325 52.6672C167.886 49.8462 166.595 47.5993 164.588 46.1888C163.527 45.4344 162.858 45.172 158.637 43.8763L153.862 42.4166L155.085 41.5638C156.63 40.4813 157.576 39.5137 158.568 37.972C159.306 36.8239 159.421 36.7419 160.321 36.5615C161.589 36.3319 163.135 35.2494 163.481 34.3638C164.011 33.0025 163.642 31.5756 162.558 30.8048C162.005 30.3947 161.935 30.2799 162.143 29.8863C162.558 29.1319 162.996 27.3606 163.181 25.8681C163.296 24.8676 163.435 24.4412 163.642 24.4412C164.104 24.4412 164.634 23.7852 164.542 23.3095C163.665 19.2749 162.42 16.9296 159.813 14.289C158.199 12.6653 156.031 11.1564 153.932 10.1888L152.225 9.38515L152.663 8.97513C153.17 8.5159 153.263 7.79426 152.847 7.61385C152.409 7.41704 150.725 7.49904 149.78 7.77786C148.995 8.02387 148.857 8.02387 148.419 7.79426C145.536 6.31818 144.751 6.10496 144.129 6.64619ZM160.044 16.782C160.044 16.7984 158.729 17.7332 157.115 18.8649L154.162 20.915L157.045 18.8157C159.721 16.8804 160.044 16.6508 160.044 16.782ZM150.725 19.9309C152.755 21.3578 154.116 22.7355 155.731 25.0316C156.746 26.4585 158.291 29.3451 158.13 29.4763C158.083 29.5091 157.645 29.4763 157.161 29.3943C156.4 29.2795 156.238 29.1811 156.054 28.7054C155.638 27.541 155.477 27.5082 151.856 27.623C147.958 27.7378 144.244 28.2298 143.552 28.7054C143.206 28.9515 143.091 29.2631 143.091 29.8535V30.6736H142.053C141.061 30.69 139.884 30.8212 138.547 31.0836C137.993 31.182 137.901 31.1492 137.786 30.7228C137.463 29.6567 137.024 29.2139 136.171 29.0991C135.271 28.9843 130.843 29.2631 128.305 29.6075C125.284 30.0175 124.523 30.4275 124.523 31.6412C124.523 32.0348 124.361 32.1496 123.392 32.4449L122.239 32.7729L122.078 31.8708C121.893 30.8048 122.101 29.1647 122.585 27.8034C122.954 26.7701 124.43 24.4248 125.053 23.8672C125.422 23.5392 125.422 23.5392 125.445 23.9C125.445 24.0968 125.63 24.3428 125.861 24.4248C126.668 24.7364 128.075 24.0312 131.858 21.4234C134.741 19.4389 134.856 19.4553 133.449 21.6858C132.711 22.8831 132.803 23.2931 133.841 23.2931C134.971 23.2931 139.077 21.5054 141.499 19.9637L142.675 19.2093L142.652 19.8161C142.629 20.3246 142.722 20.4394 143.137 20.4722C143.921 20.5542 144.913 20.095 146.251 19.0453L147.473 18.0776L148.165 18.3401C148.534 18.5041 149.687 19.2093 150.725 19.9309ZM154.993 28.3282C155.315 28.5578 155.685 30.7392 155.546 31.5264C155.385 32.2808 155.385 32.2972 154.324 32.4613C152.017 32.8221 150.379 32.9861 147.819 33.0845C145.651 33.1665 145.12 33.1337 144.89 32.9369C144.475 32.5925 143.898 30.8704 143.898 29.9683C143.898 29.2303 143.944 29.1647 144.659 28.9515C145.374 28.7382 149.157 28.2954 151.51 28.1478C152.847 28.0658 154.762 28.1642 154.993 28.3282ZM136.517 29.9355C136.955 30.3127 137.324 32.5105 137.07 33.2485C136.886 33.8225 136.771 33.8881 135.802 34.0521C135.202 34.167 134.28 34.2982 133.749 34.3638C132.78 34.4786 132.757 34.4786 132.873 34.0357C133.172 32.9205 132.157 31.4936 131.05 31.4936C129.943 31.4936 129.551 33.2321 130.428 34.2326C130.843 34.6918 130.543 34.7738 128.213 34.7738H126.391L126.022 33.9045C125.814 33.4453 125.584 32.5597 125.515 31.9528L125.376 30.8376L126.16 30.608C126.599 30.4767 127.983 30.2635 129.251 30.1159C133.68 29.6239 136.079 29.5583 136.517 29.9355ZM158.383 30.2635C158.475 30.3291 158.545 31.1984 158.545 32.1988C158.522 35.807 157.138 38.3492 153.955 40.6125C151.164 42.5806 148.373 43.5811 144.359 44.0567C140.3 44.5487 136.909 44.3683 133.242 43.4991C128.859 42.4658 125.007 39.4645 123.392 35.8398C122.262 33.3469 122.262 33.4289 123.577 33.0189L124.707 32.6745L125.007 33.5109C125.376 34.659 125.791 35.2166 126.391 35.3478C127.452 35.5938 135.064 34.9378 136.794 34.4622C137.624 34.2326 137.901 33.8225 137.901 32.7565C137.901 31.8872 137.924 31.8544 138.662 31.6576C139.054 31.5592 140.254 31.428 141.268 31.3788L143.16 31.2804L143.529 32.166C144.175 33.6913 144.221 33.7077 147.196 33.6913C149.664 33.6585 153.17 33.3305 155.016 32.9697C156.123 32.7401 156.353 32.4285 156.353 31.0672V29.9683L157.299 30.0667C157.807 30.1159 158.314 30.1979 158.383 30.2635ZM161.589 31.592C162.12 31.9692 162.166 32.1004 162.074 33.2485C162.005 34.4294 161.958 34.495 161.128 35.0362C160.09 35.725 159.698 35.7578 159.906 35.1346C159.975 34.8886 160.113 33.9045 160.182 32.9205C160.367 30.9852 160.528 30.8376 161.589 31.592ZM121.524 35.6102C121.801 36.2499 122.262 37.1847 122.585 37.6932C122.885 38.1852 123.093 38.628 123.047 38.6608C122.839 38.8084 121.34 38.2344 120.878 37.8244C120.232 37.2339 119.84 35.9055 120.163 35.315C120.371 34.905 120.786 34.4458 120.948 34.4458C120.994 34.4458 121.247 34.9706 121.524 35.6102ZM153.378 43.3023C153.609 43.4007 153.816 43.5647 153.816 43.6795C153.816 44.1059 151.694 47.5337 150.426 49.141L149.088 50.8467L146.158 48.7638C144.521 47.6157 143.206 46.6153 143.206 46.5497C143.206 46.2544 146.181 44.9752 147.289 44.7784C147.958 44.6799 149.341 44.2699 150.402 43.8763C152.525 43.1055 152.732 43.0563 153.378 43.3023ZM134.672 45.0244C135.364 45.1556 136.909 45.3524 138.108 45.4508C139.769 45.582 140.484 45.7132 141.153 46.0412C141.661 46.2708 142.053 46.5169 142.053 46.5661C142.053 46.7301 136.771 50.4367 136.678 50.3547C136.286 50.0595 133.288 45.1556 133.288 44.844C133.288 44.762 133.218 44.7456 134.672 45.0244ZM143.667 45.3524C143.667 45.3852 143.414 45.5492 143.091 45.6968C142.606 45.9264 142.445 45.9264 142.122 45.746C141.799 45.5492 141.845 45.5 142.652 45.418C143.137 45.3688 143.575 45.3032 143.621 45.2868C143.644 45.2868 143.667 45.3032 143.667 45.3524ZM132.734 48.0093C135.617 50.1251 135.756 50.3055 133.149 48.5506C131.05 47.1401 130.335 46.5825 130.635 46.5825C130.704 46.5825 131.65 47.2221 132.734 48.0093ZM138.916 52.4048C139.884 53.0772 140.6 53.6349 140.507 53.6349C140.277 53.6185 139.677 53.2412 138.132 52.1096C136.309 50.7647 136.84 50.9615 138.916 52.4048ZM154.624 52.5032C156.077 52.8968 158.222 53.8645 159.998 54.9469C161.266 55.7178 161.243 55.931 159.859 55.931C158.937 55.931 158.637 55.8162 156.722 54.7993C155.223 53.9793 153.101 53.3068 152.086 53.3068C151.233 53.3068 151.371 53.7497 152.271 53.8809C153.793 54.1269 155.477 54.7993 156.815 55.7014C158.06 56.5378 159.352 57.9647 159.352 58.5059C159.352 59.0472 157.922 58.6043 156.1 57.4891C154.624 56.587 150.587 55.1273 149.434 55.0617C148.119 54.9961 148.442 55.439 149.941 55.767C151.763 56.1606 153.055 56.751 154.347 57.7187C155.615 58.6863 156.722 60.1952 156.307 60.3756C155.869 60.5724 154.554 60.0968 153.17 59.2112C151.763 58.3091 149.895 57.5711 149.065 57.5711C148.765 57.5711 148.257 57.4891 147.934 57.3743C147.519 57.2431 147.266 57.2431 147.104 57.3579C146.943 57.4727 147.335 57.7679 148.35 58.2763C150.495 59.3752 151.74 60.5232 151.417 61.1301C151.302 61.3105 151.094 61.2777 150.31 60.9989C149.78 60.8021 149.065 60.5068 148.719 60.3264C148.396 60.146 147.266 59.7688 146.228 59.4572C144.636 58.998 144.313 58.9652 144.198 59.162C144.106 59.3096 144.244 59.49 144.498 59.5884C144.867 59.736 144.844 59.7852 144.129 59.9656C142.86 60.2936 140.392 60.2444 139.077 59.8672C138.431 59.6868 137.762 59.5884 137.555 59.6376C137.163 59.7524 134.21 57.6859 134.21 57.2923C134.21 56.6362 140.853 54.5533 148.626 52.7984C151.833 52.0768 152.847 52.0276 154.624 52.5032ZM157.045 65.4599C157.045 65.5091 155.938 64.7711 154.554 63.8198C153.193 62.8686 152.109 62.0321 152.155 61.9665C152.202 61.8517 157.045 65.2959 157.045 65.4599ZM125.861 64.8859C128.836 65.2795 131.096 66.2144 135.064 68.6581C136.517 69.5602 137.186 69.8718 137.67 69.8718C138.039 69.8718 138.385 69.921 138.431 69.9866C138.501 70.0686 138.616 70.987 138.708 72.0367C138.87 73.89 138.847 73.972 138.408 73.972C138.155 73.972 137.463 74.1196 136.886 74.3164C135.687 74.6936 131.419 75.3661 129.251 75.5301C127.544 75.6613 124.546 75.3005 122.885 74.7593L121.686 74.3656L123.738 74.382C125.422 74.382 125.791 74.3328 125.791 74.136C125.791 73.9392 125.353 73.8736 123.715 73.7916C121.317 73.6768 119.91 73.316 119.102 72.6271C118.295 71.9547 118.387 71.8399 119.517 72.1351C120.048 72.2663 121.409 72.4139 122.516 72.4631C124.384 72.5287 124.569 72.5123 124.477 72.2499C124.43 72.0203 124.108 71.9547 122.747 71.9055C121.063 71.8563 118.341 71.2987 117.234 70.7738C116.657 70.5114 116.035 69.7734 116.265 69.6258C116.311 69.5766 116.98 69.7078 117.741 69.8882C119.517 70.3474 123.369 70.5278 123.369 70.167C123.369 69.9702 122.839 69.8718 121.063 69.7242C117.603 69.4454 115.527 68.7893 115.527 67.9693V67.6084L120.094 67.6412C124.961 67.6577 126.23 67.5592 126.46 67.1328C126.691 66.7228 125.976 66.362 124.131 65.952C122.539 65.6075 121.063 64.9515 121.063 64.5907C121.063 64.4103 123.277 64.5415 125.861 64.8859ZM162.466 69.1665C164.565 70.659 166.249 71.9219 166.203 71.9383C166.156 71.9711 164.38 70.741 162.235 69.2157C160.067 67.6741 158.406 66.4276 158.499 66.4276C158.591 66.4276 160.367 67.6577 162.466 69.1665Z" fill="#1B1B05"/>
<path d="M148.509 25.2756C148.347 25.3084 148.232 25.5052 148.232 25.7184C148.232 26.0628 148.37 26.112 149.731 26.2105C150.538 26.2761 151.461 26.2925 151.784 26.2269C152.407 26.112 152.753 25.6692 152.407 25.4232C152.176 25.2592 149.039 25.1444 148.509 25.2756Z" fill="#1B1B05"/>
<path d="M130.463 26.5674C130.024 26.7478 129.379 26.879 129.056 26.8954C128.341 26.8954 127.81 27.2726 128.018 27.6335C128.179 27.9451 129.563 27.9615 130.532 27.6499C130.947 27.5187 131.454 27.3875 131.685 27.3218C132.146 27.2234 132.216 26.7314 131.8 26.4362C131.454 26.1902 131.431 26.1902 130.463 26.5674Z" fill="#1B1B05"/>
<path d="M148.783 30.4721C146.061 31.9318 146.107 32.0794 149.452 32.2434C151.228 32.3254 152.151 32.3254 152.335 32.1942C152.796 31.8662 151.966 31.5546 150.467 31.5218C149.659 31.5054 149.014 31.4398 149.014 31.3742C149.014 31.3086 149.59 30.9806 150.282 30.6197C151.528 29.9965 151.943 29.4061 151.159 29.4061C150.928 29.4061 149.867 29.8817 148.783 30.4721Z" fill="#1B1B05"/>
<path d="M140.703 36.4732C140.449 36.7028 140.472 36.8012 141.026 37.1292C141.741 37.5556 142.34 37.49 142.34 36.998C142.34 36.6536 141.741 36.2271 141.279 36.2107C141.141 36.2107 140.864 36.3255 140.703 36.4732Z" fill="#1B1B05"/>
<path d="M140.694 40.457C139.38 40.6046 138.365 41.0638 138.457 41.4738C138.549 41.933 139.241 42.0314 139.841 41.6378C140.21 41.4082 140.671 41.3426 142.055 41.3426C143.485 41.3426 143.831 41.2934 143.901 41.0802C143.924 40.9326 143.831 40.7358 143.67 40.6538C143.301 40.4242 141.732 40.3258 140.694 40.457Z" fill="#1B1B05"/>
<circle cx="242.5" cy="43.5" r="41.5" fill="#A4BBFF" stroke="#3A5ECA" stroke-width="2"/>
<path d="M223.234 73.25H245.973C242.301 72.8385 231.144 71.604 223.234 68.9292V73.25ZM242.866 29.3215C241.454 29.3215 240.042 29.1158 238.629 28.6014C238.205 29.733 237.499 30.5561 236.652 31.1733C238.064 32.7165 241.03 34.774 242.866 36.0085C244.561 34.6711 247.668 32.0992 249.222 30.8647C248.516 30.3503 247.81 29.5273 247.245 28.6014C245.832 29.0129 244.279 29.3215 242.866 29.3215ZM242.866 26.9554C246.962 26.9554 251.764 23.869 252.612 17.182C253.177 12.4497 248.233 8.4375 242.866 8.4375C237.358 8.4375 232.274 12.4497 233.121 17.182C233.686 21.7086 236.934 26.9554 242.866 26.9554Z" fill="#111A35"/>
<path d="M228.884 42.0783C229.025 41.5639 229.59 41.0495 230.437 41.1524C231.144 41.2552 231.85 41.6668 231.709 42.284L230.72 49.1768C241.736 43.2099 250.634 34.8769 252.894 32.6136C252.612 32.5107 252.188 32.3049 251.905 32.2021C251.764 32.0992 251.482 31.9963 251.34 31.9963C249.504 33.5395 245.267 37.0373 243.855 38.0661C243.29 38.4776 242.443 38.4776 242.019 38.0661C241.736 37.9632 236.793 34.774 234.392 32.3049C228.743 34.3625 220.692 38.1689 220.833 40.9466V41.0495L219.139 53.9091C221.963 53.0861 224.788 51.9544 227.613 50.7199L228.884 42.0783ZM255.436 50.2055C253.741 53.7034 252.047 57.8184 250.776 62.345C252.047 62.5508 253.6 62.8594 255.436 63.6824V50.2055ZM250.211 64.2997C249.646 66.6659 249.222 69.1349 248.939 71.7068C254.589 73.0442 257.837 72.427 259.391 71.604C259.673 70.6781 256.425 65.0198 250.211 64.2997Z" fill="#111A35"/>
<path d="M259.25 35.9056C256.566 38.5804 248.657 46.8106 244.279 54.2177C243.996 54.7321 243.149 54.9379 242.443 54.7321C241.736 54.5264 241.454 53.9091 241.736 53.3947C246.397 45.5761 254.589 37.1402 257.131 34.5682C256.566 34.2596 256.001 33.951 255.436 33.7452C252.47 36.7287 236.369 52.0573 218.856 56.3782L218.15 59.3616C217.444 62.2421 219.28 65.2256 222.669 66.563C229.873 69.4435 242.019 70.8838 246.115 71.2953C248.092 53.9091 258.402 39.4035 260.38 36.8315C259.956 36.42 259.673 36.1114 259.25 35.9056ZM237.782 51.9544C235.522 53.9091 230.155 57.0983 229.873 57.2012C229.308 57.5098 228.46 57.5098 227.895 56.9954C227.471 56.5839 227.471 55.8638 228.178 55.5551C228.178 55.5551 233.686 52.366 235.663 50.617C236.228 50.2055 237.076 50.1027 237.641 50.5142C238.205 50.9257 238.347 51.5429 237.782 51.9544ZM266.17 46.1933C265.888 42.9013 264.334 40.4322 262.357 38.3747C261.509 39.6092 259.956 41.8725 258.261 44.8559V65.5342C259.391 66.6659 262.498 69.855 262.216 71.8097C262.074 72.5298 261.509 72.9414 261.227 73.1471C261.086 73.1471 261.086 73.25 260.945 73.25H266.312C267.724 67.9004 266.594 51.3372 266.17 46.1933Z" fill="#111A35"/>
<path d="M235.969 58.4588L236.207 58.8558" stroke="#FF3E5B" stroke-miterlimit="10"/>
<path d="M11.9395 93.6943H15.3735C16.1479 93.6943 16.7383 93.7536 17.1445 93.8721C17.6904 94.0329 18.158 94.3185 18.5474 94.729C18.9367 95.1395 19.2329 95.6431 19.436 96.2397C19.6392 96.8322 19.7407 97.5643 19.7407 98.436C19.7407 99.202 19.6455 99.8621 19.4551 100.417C19.2223 101.094 18.8901 101.642 18.4585 102.061C18.1326 102.378 17.6925 102.625 17.1382 102.803C16.7235 102.934 16.1691 103 15.4751 103H11.9395V93.6943ZM13.8184 95.2686V101.432H15.2212C15.7459 101.432 16.1247 101.403 16.3574 101.343C16.6621 101.267 16.9139 101.138 17.1128 100.956C17.3159 100.774 17.481 100.476 17.6079 100.061C17.7349 99.6421 17.7983 99.0729 17.7983 98.3535C17.7983 97.6341 17.7349 97.0819 17.6079 96.6968C17.481 96.3117 17.3032 96.0112 17.0747 95.7954C16.8462 95.5796 16.5563 95.4336 16.2051 95.3574C15.9427 95.2982 15.4285 95.2686 14.6626 95.2686H13.8184ZM21.2832 103V93.6943H23.1621V103H21.2832ZM33.3501 103H31.3062L30.4937 100.886H26.7739L26.0059 103H24.0127L27.6372 93.6943H29.624L33.3501 103ZM29.8906 99.3184L28.6084 95.8652L27.3516 99.3184H29.8906ZM34.3594 93.6943H38.0791C38.8154 93.6943 39.3634 93.7261 39.7231 93.7896C40.0871 93.8488 40.4108 93.9757 40.6943 94.1704C40.9821 94.3651 41.2212 94.6253 41.4116 94.9512C41.6021 95.2728 41.6973 95.6346 41.6973 96.0366C41.6973 96.4725 41.5788 96.8724 41.3418 97.2363C41.109 97.6003 40.7917 97.8732 40.3896 98.0552C40.9567 98.2202 41.3926 98.5016 41.6973 98.8994C42.002 99.2972 42.1543 99.7648 42.1543 100.302C42.1543 100.725 42.0549 101.138 41.856 101.54C41.6613 101.938 41.3926 102.257 41.0498 102.499C40.7113 102.736 40.2923 102.882 39.793 102.937C39.4798 102.97 38.7244 102.992 37.5269 103H34.3594V93.6943ZM36.2383 95.2432V97.395H37.4697C38.2018 97.395 38.6567 97.3844 38.8345 97.3633C39.1561 97.3252 39.4079 97.2152 39.5898 97.0332C39.776 96.847 39.8691 96.6037 39.8691 96.3032C39.8691 96.0155 39.7887 95.7827 39.6279 95.605C39.4714 95.423 39.2365 95.313 38.9233 95.2749C38.7371 95.2537 38.2018 95.2432 37.3174 95.2432H36.2383ZM36.2383 98.9438V101.432H37.9775C38.6546 101.432 39.0841 101.413 39.2661 101.375C39.5454 101.324 39.7718 101.201 39.9453 101.007C40.123 100.808 40.2119 100.543 40.2119 100.213C40.2119 99.9341 40.1442 99.6971 40.0088 99.5024C39.8734 99.3078 39.6766 99.166 39.4185 99.0771C39.1646 98.9883 38.6102 98.9438 37.7554 98.9438H36.2383ZM43.7476 103V93.6943H50.6475V95.2686H45.6265V97.3315H50.2983V98.8994H45.6265V101.432H50.8252V103H43.7476ZM54.5132 103V95.2686H51.752V93.6943H59.147V95.2686H56.3921V103H54.5132ZM60.3657 103V93.6943H67.2656V95.2686H62.2446V97.3315H66.9165V98.8994H62.2446V101.432H67.4434V103H60.3657ZM68.5605 99.9722L70.3887 99.7944C70.4987 100.408 70.7209 100.859 71.0552 101.146C71.3937 101.434 71.8486 101.578 72.4199 101.578C73.0251 101.578 73.48 101.451 73.7847 101.197C74.0936 100.939 74.248 100.639 74.248 100.296C74.248 100.076 74.1825 99.8896 74.0513 99.7373C73.9243 99.5807 73.7 99.4453 73.3784 99.3311C73.1584 99.2549 72.6569 99.1195 71.874 98.9248C70.8669 98.6751 70.1602 98.3683 69.7539 98.0044C69.1826 97.4924 68.897 96.8682 68.897 96.1318C68.897 95.6579 69.0303 95.2157 69.2969 94.8052C69.5677 94.3905 69.9549 94.0752 70.4585 93.8594C70.9663 93.6436 71.5778 93.5356 72.293 93.5356C73.4609 93.5356 74.339 93.7917 74.9272 94.3037C75.5197 94.8158 75.8307 95.4992 75.8604 96.354L73.9814 96.4365C73.901 95.9583 73.7275 95.6156 73.4609 95.4082C73.1986 95.1966 72.8029 95.0908 72.2739 95.0908C71.728 95.0908 71.3006 95.203 70.9917 95.4272C70.7928 95.5711 70.6934 95.7637 70.6934 96.0049C70.6934 96.2249 70.7865 96.4132 70.9727 96.5698C71.2096 96.7687 71.7852 96.9761 72.6992 97.1919C73.6133 97.4077 74.2882 97.632 74.7241 97.8647C75.1642 98.0933 75.507 98.4085 75.7524 98.8105C76.0021 99.2083 76.127 99.7013 76.127 100.29C76.127 100.823 75.9788 101.322 75.6826 101.788C75.3864 102.253 74.9674 102.6 74.4258 102.829C73.8841 103.053 73.2091 103.165 72.4009 103.165C71.2244 103.165 70.321 102.894 69.6904 102.353C69.0599 101.807 68.6833 101.013 68.5605 99.9722Z" fill="#050549"/>
<path d="M210.47 99.9722L212.298 99.7944C212.408 100.408 212.63 100.859 212.964 101.146C213.303 101.434 213.758 101.578 214.329 101.578C214.934 101.578 215.389 101.451 215.694 101.197C216.003 100.939 216.157 100.639 216.157 100.296C216.157 100.076 216.092 99.8896 215.96 99.7373C215.833 99.5807 215.609 99.4453 215.288 99.3311C215.068 99.2549 214.566 99.1195 213.783 98.9248C212.776 98.6751 212.069 98.3683 211.663 98.0044C211.092 97.4924 210.806 96.8682 210.806 96.1318C210.806 95.6579 210.939 95.2157 211.206 94.8052C211.477 94.3905 211.864 94.0752 212.368 93.8594C212.875 93.6436 213.487 93.5356 214.202 93.5356C215.37 93.5356 216.248 93.7917 216.836 94.3037C217.429 94.8158 217.74 95.4992 217.77 96.354L215.891 96.4365C215.81 95.9583 215.637 95.6156 215.37 95.4082C215.108 95.1966 214.712 95.0908 214.183 95.0908C213.637 95.0908 213.21 95.203 212.901 95.4272C212.702 95.5711 212.603 95.7637 212.603 96.0049C212.603 96.2249 212.696 96.4132 212.882 96.5698C213.119 96.7687 213.694 96.9761 214.608 97.1919C215.522 97.4077 216.197 97.632 216.633 97.8647C217.073 98.0933 217.416 98.4085 217.662 98.8105C217.911 99.2083 218.036 99.7013 218.036 100.29C218.036 100.823 217.888 101.322 217.592 101.788C217.296 102.253 216.877 102.6 216.335 102.829C215.793 103.053 215.118 103.165 214.31 103.165C213.134 103.165 212.23 102.894 211.6 102.353C210.969 101.807 210.592 101.013 210.47 99.9722ZM219.623 103V93.6943H221.502V97.3569H225.184V93.6943H227.062V103H225.184V98.9312H221.502V103H219.623ZM228.63 98.4043C228.63 97.4564 228.772 96.6608 229.056 96.0176C229.267 95.5436 229.555 95.1183 229.919 94.7417C230.287 94.3651 230.689 94.0858 231.125 93.9038C231.705 93.6584 232.373 93.5356 233.131 93.5356C234.502 93.5356 235.598 93.9609 236.419 94.8115C237.244 95.6621 237.657 96.8449 237.657 98.3599C237.657 99.8621 237.248 101.039 236.432 101.889C235.615 102.736 234.523 103.159 233.156 103.159C231.772 103.159 230.672 102.738 229.855 101.896C229.039 101.049 228.63 99.8854 228.63 98.4043ZM230.566 98.3408C230.566 99.3945 230.81 100.194 231.296 100.74C231.783 101.282 232.401 101.553 233.15 101.553C233.899 101.553 234.513 101.284 234.991 100.747C235.473 100.205 235.714 99.3945 235.714 98.3154C235.714 97.249 235.479 96.4535 235.01 95.9287C234.544 95.404 233.924 95.1416 233.15 95.1416C232.375 95.1416 231.751 95.4082 231.277 95.9414C230.803 96.4704 230.566 97.2702 230.566 98.3408ZM239.117 93.6943H240.996V98.7344C240.996 99.5342 241.019 100.053 241.065 100.29C241.146 100.67 241.336 100.977 241.637 101.21C241.941 101.438 242.356 101.553 242.881 101.553C243.414 101.553 243.816 101.445 244.087 101.229C244.358 101.009 244.521 100.74 244.576 100.423C244.631 100.105 244.658 99.5786 244.658 98.8423V93.6943H246.537V98.582C246.537 99.6992 246.486 100.488 246.385 100.95C246.283 101.411 246.095 101.8 245.82 102.118C245.549 102.435 245.185 102.689 244.728 102.879C244.271 103.066 243.674 103.159 242.938 103.159C242.049 103.159 241.374 103.057 240.913 102.854C240.456 102.647 240.094 102.38 239.828 102.054C239.561 101.724 239.385 101.379 239.301 101.02C239.178 100.486 239.117 99.6992 239.117 98.6582V93.6943ZM248.575 103V93.7705H250.454V101.432H255.125V103H248.575ZM256.465 93.6943H259.899C260.673 93.6943 261.264 93.7536 261.67 93.8721C262.216 94.0329 262.683 94.3185 263.073 94.729C263.462 95.1395 263.758 95.6431 263.961 96.2397C264.165 96.8322 264.266 97.5643 264.266 98.436C264.266 99.202 264.171 99.8621 263.98 100.417C263.748 101.094 263.416 101.642 262.984 102.061C262.658 102.378 262.218 102.625 261.664 102.803C261.249 102.934 260.694 103 260 103H256.465V93.6943ZM258.344 95.2686V101.432H259.747C260.271 101.432 260.65 101.403 260.883 101.343C261.188 101.267 261.439 101.138 261.638 100.956C261.841 100.774 262.006 100.476 262.133 100.061C262.26 99.6421 262.324 99.0729 262.324 98.3535C262.324 97.6341 262.26 97.0819 262.133 96.6968C262.006 96.3117 261.829 96.0112 261.6 95.7954C261.372 95.5796 261.082 95.4336 260.73 95.3574C260.468 95.2982 259.954 95.2686 259.188 95.2686H258.344ZM265.866 103V93.6943H272.766V95.2686H267.745V97.3315H272.417V98.8994H267.745V101.432H272.943V103H265.866ZM274.543 103V93.6943H278.498C279.492 93.6943 280.214 93.779 280.662 93.9482C281.115 94.1133 281.477 94.4095 281.748 94.8369C282.018 95.2643 282.154 95.7531 282.154 96.3032C282.154 97.0015 281.949 97.5791 281.538 98.0361C281.128 98.4889 280.514 98.7746 279.697 98.8931C280.104 99.13 280.438 99.3903 280.7 99.6738C280.967 99.9574 281.324 100.461 281.773 101.185L282.909 103H280.662L279.304 100.975C278.821 100.251 278.491 99.7965 278.313 99.6104C278.136 99.4199 277.947 99.2909 277.749 99.2231C277.55 99.1512 277.234 99.1152 276.803 99.1152H276.422V103H274.543ZM276.422 97.6299H277.812C278.713 97.6299 279.276 97.5918 279.5 97.5156C279.725 97.4395 279.9 97.3083 280.027 97.1221C280.154 96.9359 280.218 96.7031 280.218 96.4238C280.218 96.1107 280.133 95.8589 279.964 95.6685C279.799 95.4738 279.564 95.3511 279.259 95.3003C279.107 95.2791 278.65 95.2686 277.888 95.2686H276.422V97.6299Z" fill="#050549"/>
<path d="M122.946 104V94.6943H129.846V96.2686H124.825V98.3315H129.497V99.8994H124.825V102.432H130.023V104H122.946ZM131.667 104V94.7705H133.546V102.432H138.218V104H131.667ZM139.57 94.6943H143.29C144.026 94.6943 144.574 94.7261 144.934 94.7896C145.298 94.8488 145.622 94.9757 145.905 95.1704C146.193 95.3651 146.432 95.6253 146.623 95.9512C146.813 96.2728 146.908 96.6346 146.908 97.0366C146.908 97.4725 146.79 97.8724 146.553 98.2363C146.32 98.6003 146.003 98.8732 145.601 99.0552C146.168 99.2202 146.604 99.5016 146.908 99.8994C147.213 100.297 147.365 100.765 147.365 101.302C147.365 101.725 147.266 102.138 147.067 102.54C146.872 102.938 146.604 103.257 146.261 103.499C145.922 103.736 145.503 103.882 145.004 103.937C144.691 103.97 143.935 103.992 142.738 104H139.57V94.6943ZM141.449 96.2432V98.395H142.681C143.413 98.395 143.868 98.3844 144.045 98.3633C144.367 98.3252 144.619 98.2152 144.801 98.0332C144.987 97.847 145.08 97.6037 145.08 97.3032C145.08 97.0155 145 96.7827 144.839 96.605C144.682 96.423 144.447 96.313 144.134 96.2749C143.948 96.2537 143.413 96.2432 142.528 96.2432H141.449ZM141.449 99.9438V102.432H143.188C143.866 102.432 144.295 102.413 144.477 102.375C144.756 102.324 144.983 102.201 145.156 102.007C145.334 101.808 145.423 101.543 145.423 101.213C145.423 100.934 145.355 100.697 145.22 100.502C145.084 100.308 144.888 100.166 144.629 100.077C144.375 99.9883 143.821 99.9438 142.966 99.9438H141.449ZM148.578 99.4043C148.578 98.4564 148.719 97.6608 149.003 97.0176C149.215 96.5436 149.502 96.1183 149.866 95.7417C150.234 95.3651 150.636 95.0858 151.072 94.9038C151.652 94.6584 152.321 94.5356 153.078 94.5356C154.449 94.5356 155.545 94.9609 156.366 95.8115C157.191 96.6621 157.604 97.8449 157.604 99.3599C157.604 100.862 157.196 102.039 156.379 102.889C155.562 103.736 154.47 104.159 153.104 104.159C151.72 104.159 150.619 103.738 149.803 102.896C148.986 102.049 148.578 100.885 148.578 99.4043ZM150.514 99.3408C150.514 100.395 150.757 101.194 151.244 101.74C151.73 102.282 152.348 102.553 153.097 102.553C153.846 102.553 154.46 102.284 154.938 101.747C155.42 101.205 155.662 100.395 155.662 99.3154C155.662 98.249 155.427 97.4535 154.957 96.9287C154.492 96.404 153.872 96.1416 153.097 96.1416C152.323 96.1416 151.699 96.4082 151.225 96.9414C150.751 97.4704 150.514 98.2702 150.514 99.3408ZM160.397 104L158.175 94.6943H160.099L161.501 101.086L163.203 94.6943H165.437L167.068 101.194L168.497 94.6943H170.388L168.128 104H166.135L164.282 97.043L162.435 104H160.397Z" fill="#050549"/>
</svg>
