<svg width="878" height="899" viewBox="0 0 878 899" fill="none" xmlns="http://www.w3.org/2000/svg">
<path d="M678.207 589.881C693.12 589.866 705.203 565.027 705.195 534.402C705.195 527.019 704.474 519.707 703.073 512.881L699.097 516.336C701.45 527.665 701.502 540.395 699.241 551.799C696.98 563.204 692.587 572.378 687.001 577.357C684.289 579.708 681.371 580.951 678.417 581.01C675.463 581.07 672.533 579.947 669.798 577.706L668.195 585.941C671.373 588.552 674.774 589.89 678.207 589.881Z" fill="#988888"/>
<path d="M610.412 588.436H671.305V570.684L622.199 555.149L610.412 588.436Z" fill="#3F3D56"/>
<path d="M619.193 570.881H458.126C458.029 580.776 461.492 590.31 467.754 597.384C474.016 604.459 482.564 608.495 491.518 608.605H585.802C594.756 608.495 603.304 604.459 609.566 597.384C615.828 590.31 619.291 580.776 619.193 570.881Z" fill="#988888"/>
<path d="M455.766 593.127H634.511C640.81 592.974 646.804 590.101 651.209 585.124C655.615 580.147 658.082 573.461 658.082 566.498C658.082 559.536 655.615 552.85 651.209 547.873C646.804 542.896 640.81 540.023 634.511 539.869H455.766C449.468 540.023 443.474 542.896 439.068 547.873C434.663 552.85 432.196 559.536 432.196 566.498C432.196 573.461 434.663 580.147 439.068 585.124C443.474 590.101 449.468 592.974 455.766 593.127Z" fill="#988888"/>
<path d="M497.709 772.978H542.846V592.881H558.545V772.978H603.682C610.523 773.047 617.054 775.605 621.838 780.087C626.623 784.57 629.268 790.61 629.194 796.881V796.881H472.197V796.881C472.122 790.61 474.768 784.57 479.552 780.087C484.337 775.605 490.868 773.047 497.709 772.978Z" fill="#988888"/>
<path d="M366.319 737.766C366.686 739.382 367.404 740.899 368.421 742.209C369.438 743.518 370.73 744.59 372.205 745.347C371.801 749.091 370.127 752.581 367.462 755.238C364.82 757.878 361.743 760.044 358.365 761.64C355.551 763.139 352.549 764.255 349.438 764.959C343.985 766.076 338.295 765.324 332.923 763.959C329.937 763.226 326.499 761.8 325.903 758.814C325.766 757.728 325.845 756.625 326.136 755.571C327.735 748.136 329.887 740.833 332.574 733.721C333.204 731.672 334.263 729.782 335.681 728.175C337.546 726.314 340.216 725.497 342.813 725.018C348.676 723.964 354.705 724.282 360.43 725.947C362.246 726.493 366.906 727.404 367.416 729.484C367.657 730.437 366.518 732.132 366.329 733.114C365.997 734.646 365.993 736.231 366.319 737.766Z" fill="#FFC2A1"/>
<path d="M171.152 601.391C170.698 602.444 170.478 603.587 170.509 604.739C170.539 605.89 170.819 607.022 171.328 608.054C169.58 609.976 167.232 611.232 164.673 611.612C162.134 611.993 159.547 611.928 157.026 611.422C154.856 611.094 152.738 610.476 150.727 609.582C147.25 607.95 144.403 605.177 141.981 602.194C140.625 600.55 139.3 598.333 140.185 596.42C140.552 595.758 141.045 595.176 141.635 594.707C145.548 591.221 149.713 588.036 154.098 585.179C155.281 584.297 156.638 583.68 158.077 583.369C159.869 583.102 161.681 583.75 163.315 584.557C166.993 586.394 170.205 589.065 172.7 592.361C173.484 593.417 175.696 595.852 175.132 597.224C174.877 597.855 173.556 598.329 173.052 598.799C172.244 599.516 171.597 600.4 171.152 601.391V601.391Z" fill="#FFC2A1"/>
<path d="M633.986 402.248L661.44 404.869C662.555 404.969 663.774 405.135 664.338 406.031C664.728 406.875 664.806 407.888 664.561 408.917C663.442 416.349 662.038 424.438 665.445 430.139C667.872 434.21 672.423 436.398 674.962 440.367C679.52 447.558 676.422 458.466 672.332 467.747C663.169 488.541 649.181 508.205 631.393 523.078C613.604 537.95 592.037 547.862 571.313 549.235C564.948 549.652 558.711 549.296 552.391 549.444C534.905 549.88 516.959 554.242 499.171 558.585C476.273 564.173 453.835 559.443 431.032 561.947C426.881 562.401 422.455 563.039 418.792 565.744C416.744 567.265 414.967 570.373 416.452 571.839C419.306 574.708 419.083 579.907 419.761 584.209C422.373 600.467 424.96 617.346 420.347 634.713C417.831 644.223 413.241 653.444 408.478 662.47C396.425 685.374 383.058 707.758 369.675 730.087C367.262 729.655 364.759 729.49 362.205 729.593C358.481 729.812 354.659 731.072 350.916 731.288C344.122 731.736 338.294 728.806 332.753 725.932C337.323 709.521 341.98 692.65 346.187 676.195C348.312 667.919 350.404 659.547 350.533 651.416C350.593 646.097 349.846 640.914 349.895 635.572C350.082 630.23 350.674 624.825 351.664 619.402L358.356 577.049C360.284 564.89 362.07 552.335 363.677 540.183C364.576 533.347 365.739 525.914 370.568 520.252C374.7 515.402 380.664 512.879 386.295 510.569C419.378 497.007 452.259 482.62 484.94 467.407C491.549 464.322 498.166 461.204 504.887 458.635C517.966 453.639 531.319 450.765 544.406 450.128C546.803 450.009 549.676 449.71 551.272 447.543C551.699 446.936 552.024 446.274 552.229 445.593C553.656 441.326 552.777 437.139 551.903 433.212C551.029 429.285 550.209 425.044 551.743 420.792C553.277 416.54 558.149 412.596 561.821 413.887C572.318 409.48 583.175 404.442 593.809 402.401C602.211 400.789 610.502 400.73 618.748 400.698C624.249 400.675 628.612 401.741 633.986 402.248Z" fill="#464353"/>
<path d="M546.112 231.929C547.584 228.669 552.029 228.236 555.583 228.857C570.175 231.279 582.144 242.886 587.85 256.533C589.364 259.92 590.282 263.542 590.564 267.241C590.791 272.066 589.449 276.813 588.508 281.516C585.897 294.568 586.203 308.035 589.406 320.954C591.509 329.408 594.842 337.569 596.132 346.181C599.31 367.38 589.89 389.087 593.55 410.168C594.411 415.199 596.076 420.292 595.419 425.384C595.027 428.41 593.834 431.277 591.964 433.688C590.094 436.099 587.614 437.968 584.78 439.1C581.946 440.232 578.861 440.587 575.845 440.129C572.828 439.67 569.988 438.414 567.619 436.491C558.545 435.271 549.51 432.824 540.698 430.307C527.374 426.327 514.356 421.386 501.746 415.522C497.252 413.493 492.77 411.407 488.099 409.771C476.57 405.731 463.981 404.475 453.345 398.482C449.079 396.08 445.205 392.955 440.722 391.004C436.701 389.25 432.317 388.488 427.94 388.781C413.47 389.774 398.765 384.108 384.384 382.319C378.56 381.609 372.656 381.003 367.124 379.023C361.592 377.044 356.387 373.517 353.674 368.304C350.962 363.091 351.268 356.099 355.412 351.943C357.365 350.173 359.645 348.8 362.125 347.903C370.37 344.449 379.116 342.343 388.029 341.664C391.937 341.377 395.858 341.305 399.773 341.451C418.801 342.101 438.376 346.815 453.096 358.889C458.137 363.033 463.173 368.248 469.696 368.537C487.706 369.349 504.435 379.423 522.239 382.307C530.462 383.623 539.311 384.615 546.833 381.005C548.002 380.523 549.027 379.75 549.813 378.761C551.609 376.234 550.379 372.753 549.147 369.903C544.351 358.777 540.376 347.316 537.255 335.609C536.026 330.988 534.903 326.099 535.951 321.411C536.677 318.22 538.365 315.275 538.777 312.03C539.352 307.509 537.378 303.106 535.605 298.896C529.894 285.286 525.95 271 523.868 256.387C522.916 249.704 522.76 241.881 527.806 237.407C532.625 233.158 540.224 234.735 546.112 231.929Z" fill="#FFC2A1"/>
<path opacity="0.03" d="M564.213 242.327C565.686 239.067 570.131 238.634 573.684 239.256C588.276 241.677 600.245 253.284 605.952 266.931C607.465 270.318 608.383 273.941 608.665 277.64C608.892 282.464 607.55 287.211 606.609 291.915C603.998 304.966 604.305 318.433 607.508 331.352C609.61 339.807 612.944 347.967 614.233 356.579C617.412 377.778 607.991 399.486 611.652 420.567C612.513 425.597 614.178 430.69 613.52 435.782C613.128 438.809 611.936 441.675 610.066 444.087C608.195 446.498 605.715 448.366 602.881 449.498C600.048 450.631 596.963 450.986 593.946 450.527C590.929 450.068 588.09 448.813 585.72 446.89C576.646 445.669 567.612 443.222 558.8 440.706C545.476 436.725 532.457 431.784 519.848 425.921C515.354 423.892 510.871 421.806 506.2 420.169C494.672 416.129 482.083 414.874 471.446 408.881C467.18 406.478 463.307 403.354 458.824 401.402C454.803 399.648 450.419 398.886 446.041 399.18C431.571 400.172 416.866 394.506 402.486 392.718C396.661 392.008 390.758 391.401 385.226 389.422C379.694 387.442 374.488 383.916 371.776 378.703C369.063 373.489 369.37 366.497 373.513 362.342C375.467 360.571 377.747 359.199 380.226 358.301C388.471 354.848 397.218 352.742 406.131 352.063C410.039 351.775 413.959 351.704 417.875 351.849C436.903 352.5 456.477 357.214 471.198 369.287C476.239 373.432 481.274 378.646 487.798 378.936C505.808 379.748 522.537 389.822 540.341 392.706C548.563 394.022 557.413 395.013 564.935 391.403C566.103 390.921 567.129 390.149 567.915 389.159C569.711 386.633 568.48 383.152 567.249 380.301C562.453 369.176 558.478 357.714 555.356 346.008C554.128 341.387 553.005 336.498 554.053 331.809C554.779 328.619 556.467 325.673 556.878 322.429C557.454 317.908 555.479 313.504 553.707 309.295C547.996 295.684 544.051 281.398 541.969 266.786C541.018 260.103 540.862 252.279 545.908 247.805C550.726 243.556 558.325 245.133 564.213 242.327Z" fill="black"/>
<path d="M529.11 209.905C519.39 220.743 503.581 222.418 493.8 213.645C484.018 204.873 483.969 188.976 493.689 178.138C503.409 167.3 519.218 165.625 528.999 174.397C538.78 183.17 538.83 199.067 529.11 209.905Z" fill="#FFC2A1"/>
<path d="M498.319 215.496C494.82 219.398 488.82 219.724 484.918 216.224C481.016 212.725 480.69 206.725 484.189 202.823C487.689 198.922 493.689 198.595 497.59 202.095C501.492 205.594 501.819 211.594 498.319 215.496Z" fill="#FFC2A1"/>
<path d="M509.089 196.597C495.7 211.526 475.628 215.361 464.255 205.162C452.883 194.963 454.518 174.593 467.907 159.664C481.296 144.735 501.369 140.9 512.741 151.099C524.113 161.298 522.478 181.668 509.089 196.597Z" fill="#FFC2A1"/>
<path d="M532.791 178.635C533.042 182.218 533.484 185.814 534.113 189.4C535.699 184.856 536.779 179.978 537.325 174.885C537.609 173.947 537.754 172.929 537.754 171.873C537.852 161.983 536.991 152.276 533.906 142.442C530.33 131.04 524.416 120.621 516.833 112.361C509.249 104.101 500.298 98.3295 490.99 95.698C481.683 93.0665 472.389 93.68 464.159 97.4692C455.929 101.258 449.091 108.072 444.417 117.141C439.742 126.211 437.418 137.174 437.706 148.793C437.995 160.411 440.884 172.223 446.049 182.894C451.213 193.564 458.446 202.668 466.932 209.178C475.417 215.688 484.817 219.344 494.069 219.734C490.767 214.153 486.988 208.879 484.775 202.707C483.969 200.67 483.538 198.496 483.518 196.368C483.658 194.052 484.267 191.911 485.288 190.137C488.801 183.321 494.708 178.97 501.229 177.081C507.825 175.403 514.829 175.427 521.852 177.15C524.046 177.625 526.725 178.354 529.235 178.639C530.437 178.791 531.628 178.79 532.791 178.635Z" fill="#FFC2A1"/>
<path d="M518.638 336.625C524.758 337.694 530.651 333.535 534.427 328.621C541.486 319.477 543.904 307.569 544.337 296.003C544.771 284.436 543.563 272.902 544.338 261.374C545.762 239.91 554.527 222.155 568.677 205.912C563.268 206.716 558.139 200.034 553.862 196.655C545.179 189.862 536.306 182.845 529.198 174.535C528.427 173.642 527.684 172.748 526.962 171.831C527.003 172.325 527.023 172.827 527.044 173.342C527.344 182.215 525.341 191.015 521.231 198.884C517.12 206.753 511.043 213.424 503.589 218.247C505.254 219 506.865 219.866 508.411 220.839C514.994 225.077 519.441 231.86 523.708 238.44C526.266 242.373 528.916 246.697 528.533 251.363C528.287 254.394 526.786 257.145 525.592 259.929C523.224 265.49 521.975 271.463 521.917 277.507C521.869 281.709 522.378 285.98 521.908 290.113C521.274 293.874 520.312 297.573 519.033 301.167C516.225 310.286 514.454 319.692 513.752 329.207C513.463 330.862 513.702 332.566 514.435 334.077C514.924 334.767 515.55 335.349 516.273 335.787C516.996 336.225 517.801 336.51 518.638 336.625Z" fill="#FFC2A1"/>
<path d="M555.126 445.584C559.052 447.783 564.375 446.621 568.921 446.42C581.32 445.905 593.811 445.322 606.171 443.563C619.39 441.673 632.402 438.42 645.408 435.175L662.265 430.954C664.492 430.549 666.63 429.703 668.554 428.467C670.598 426.854 672.006 424.56 672.512 422.018C672.744 421.03 672.873 420.023 672.899 419.013C672.967 415.452 671.956 412.002 670.953 408.622C666.341 393.2 661.733 377.768 657.128 362.326C655.478 356.816 653.691 351.276 651.892 345.751C651.668 345.026 651.424 344.31 651.2 343.585C649.572 338.553 647.938 333.528 646.469 328.53L650.767 310.877L651.34 308.568L652.009 305.835C652.892 302.198 653.784 298.504 653.647 294.794C653.375 291.132 652.485 287.561 651.015 284.234C648.388 277.965 645.339 271.895 641.889 266.063C632.679 249.894 622.372 233.938 607.945 222.285C595.256 212.034 578.846 205.467 562.529 206.868C560.29 207.053 558.062 207.391 555.86 207.881C553.159 208.495 550.983 209.611 549.576 212.019C548.169 214.428 546.857 216.732 545.564 219.09C542.009 225.6 538.704 232.233 535.649 238.991C532.907 245.091 530.199 251.511 525.143 255.885C524.331 256.589 523.456 257.231 522.603 257.89C521.907 258.43 521.225 258.968 520.578 259.571C520.215 259.903 519.871 260.256 519.55 260.629C517.259 263.264 516.259 266.733 515.325 270.088C513.544 276.495 511.759 283.129 512.602 289.666C513.127 293.578 514.61 297.309 514.893 301.261C515.273 306.541 513.481 311.777 512.58 317.048C512.404 318.065 512.291 319.09 512.242 320.117C512.158 322.408 512.34 324.694 512.783 326.928C514.508 336.022 519.676 344.676 520.979 354.244C522.014 361.896 523.961 369.367 526.777 376.499C527.253 377.677 527.749 378.845 528.267 380.018C529.127 381.97 530.053 383.885 531.038 385.756C531.293 386.237 531.532 386.706 531.815 387.183C533.332 389.981 534.999 392.692 536.807 395.303C541.19 401.642 546.504 407.74 548.025 415.372C549.071 420.689 548.183 426.226 548.418 431.66C548.496 435.102 549.376 438.453 550.989 441.444C551.981 443.17 553.406 444.596 555.126 445.584Z" fill="#FFC2A1"/>
<path d="M528.175 259.768C527.519 278.367 525.314 296.657 521.584 314.462L520.992 317.294C519.815 322.709 518.492 328.259 519.431 334.012C520.116 337.388 521.24 340.727 522.774 343.943C526.172 351.716 530.143 359.307 534.651 366.647C535.646 368.278 536.711 370.101 536.435 371.817C536.158 373.533 534.555 375.216 534.745 377.131C536.792 377.395 538.835 377.633 540.863 377.799C556.078 379.284 571.134 378.864 585.668 376.546C594.663 375.114 603.432 372.96 612.181 370.813L628.346 366.822C635.107 365.155 641.949 363.457 647.893 360.214C650.129 358.995 652.299 357.533 654.535 356.268C652.874 351.381 651.206 346.5 649.697 341.668L653.899 323.922C643.942 326.547 632.941 326.756 622.097 325.443C607.182 323.621 592.298 319.159 577.544 314.686C575.094 314.039 572.692 313.093 570.398 311.87C566.704 309.713 563.903 306.231 561.543 302.692C553.168 289.976 549.117 275.436 550.072 261.519C550.774 251.749 553.945 242.761 557.164 233.885C559.424 227.696 562.119 221.111 567.031 217.162C564.9 217.007 562.782 216.996 560.693 217.129C558.132 217.304 556.081 218.019 554.792 220.04C553.502 222.062 552.301 224 551.12 225.991C549.276 230.519 547.714 235.196 546.214 239.894C545.172 242.938 544.38 246.089 543.843 249.323C543.459 252.679 543.296 256.087 543.355 259.527C543.276 269.492 542.468 279.332 540.937 288.973C539.146 300.077 536.212 310.792 533.269 321.487C533.035 322.691 532.514 323.784 531.745 324.684C531.351 325.128 530.795 325.404 530.166 325.469C529.538 325.534 528.874 325.384 528.28 325.043C527.714 324.588 527.272 323.999 527.007 323.347C525.111 319.336 526.178 315.046 527.064 311.092C530.713 294.652 530.469 277.101 530.178 259.692C530.176 259.271 530.107 258.842 529.973 258.422L528.175 259.768Z" fill="#F64891"/>
<path d="M642.339 539.461C623.506 539.767 604.38 540.064 587.045 536.788C574.867 534.489 563.913 530.473 552.557 527.035C544.015 524.452 535.206 522.183 527.193 519.015C519.971 515.987 513.096 512.633 506.603 508.969C491.93 501.112 476.899 493.548 461.51 486.276C453.259 482.408 444.588 478.527 434.09 477.697C415.432 476.203 395.769 484.438 378.187 492.27C351.86 504.002 325.744 516.037 301.843 530.27C288.248 538.376 275.237 546.934 261.458 554.868C236.266 569.369 208.81 581.598 181.455 593.773C179.461 594.847 177.125 595.504 174.797 595.647C173.082 595.521 171.531 595.07 170.306 594.341C165.889 592.136 162.133 589.398 159.174 586.228C158.673 585.905 158.408 585.438 158.433 584.922C158.458 584.405 158.771 583.879 159.308 583.451C169.799 572.838 184.615 564.437 198.218 555.503C209.045 548.399 219.245 540.864 229.43 533.331C239.215 526.101 249.082 518.799 256.813 510.586C260.709 506.435 264.074 502.065 268.414 498.101C272.281 494.744 276.457 491.546 280.909 488.534C300.685 474.449 319.245 459.597 336.457 444.088C349.546 432.288 359.379 418.662 373.689 407.501C382.467 400.655 392.946 393.863 405.145 392.02C419.985 389.756 432.579 395.42 444.327 400.106C483.815 415.877 530.77 422.975 573.592 435.029C608.545 444.847 642.168 458.283 682.144 458.64C681.276 462.737 681.512 466.588 680.62 470.648C679.627 476.238 678.082 481.843 675.997 487.425C673.814 492.443 671.206 497.42 668.188 502.327L656.634 522.13C654.317 526.149 651.874 530.25 648.086 533.878C646.114 535.847 641.866 537.35 642.339 539.461Z" fill="#464353"/>
<path d="M327.187 755.264C317.014 765.64 309.586 777.631 300.067 788.439C296.213 792.811 292.021 797.029 288.675 801.633C285.329 806.237 282.91 811.509 283.387 815.93C283.724 817.969 284.373 819.863 285.32 821.567C286.523 824.087 288.01 826.788 291.225 827.1C294.621 827.434 298.601 824.971 302.086 822.664C314.619 814.377 327.149 806.086 339.496 797.48C341.963 795.705 344.494 794.032 347.075 792.469C349.232 791.215 351.444 790.128 353.62 788.927C356.431 787.375 359.172 785.624 361.914 783.902C368.89 779.448 375.947 774.946 382.055 769.334C384.841 766.772 387.638 763.495 387.481 760.611C387.266 759.222 386.681 758.008 385.768 757.057C383.601 754.304 381.497 751.494 379.263 748.793C376.977 746.013 374.467 743.237 370.635 742.17C369.569 741.761 368.216 741.819 366.849 742.331C366.07 742.728 365.331 743.238 364.672 743.834C361.257 746.657 357.737 749.594 355.472 753.121C353.672 755.914 349.892 754.776 347.975 757.519C344.354 762.737 344.097 755.759 340.363 760.931C337.346 759.411 333.693 764.603 332.582 761.484C331.472 758.366 329.337 761.783 327.683 758.979C327.263 758.415 326.987 757.747 326.867 757.005C326.851 756.213 326.335 755.807 327.187 755.264Z" fill="#464353"/>
<path d="M147.451 589.711C138.35 588.907 129.48 590.293 120.41 590.033C116.74 589.926 113.02 589.568 109.426 589.836C105.832 590.104 102.255 591.167 100.208 593.398C99.3091 594.489 98.6018 595.683 98.1033 596.951C97.2913 598.721 96.4957 600.724 97.5624 602.583C98.6862 604.548 101.442 605.576 103.931 606.409C112.877 609.409 121.824 612.404 130.86 615.162C132.694 615.688 134.5 616.294 136.27 616.976C137.722 617.569 139.112 618.266 140.546 618.893C142.398 619.703 144.323 620.386 146.234 621.083C151.134 622.824 156.089 624.586 161.242 625.344C163.593 625.69 166.309 625.721 167.703 624.348C168.321 623.612 168.709 622.757 168.842 621.844C169.404 619.454 170.02 617.073 170.531 614.671C171.062 612.206 171.505 609.623 170.585 607.097C170.385 606.343 169.841 605.646 169.063 605.143C168.567 604.904 168.028 604.737 167.477 604.651C164.754 604.086 161.935 603.516 159.296 603.881C157.202 604.166 156.338 601.636 154.226 601.837C150.218 602.232 153.637 598.976 149.609 599.291C149.227 596.998 145.22 597.364 146.369 595.376C147.518 593.389 144.984 593.774 145.768 591.637C145.892 591.159 146.123 590.713 146.452 590.318C146.844 589.955 146.853 589.498 147.451 589.711Z" fill="#464353"/>
<path d="M282.834 825.49C282.559 825.293 282.27 825.114 281.97 824.956L282.834 825.49Z" fill="#464353"/>
<path opacity="0.06" d="M551.33 445.29C555.186 447.821 560.627 447.086 565.232 447.253C577.793 447.746 590.45 448.176 603.035 447.414C616.494 446.59 629.815 444.378 643.129 442.174L660.386 439.302C662.658 439.076 664.862 438.4 666.871 437.314C669.02 435.858 670.561 433.666 671.202 431.151C670.771 431.033 670.355 430.942 669.926 430.866L638.554 424.733C632.399 423.538 627.343 421.837 621.133 421.198C611.812 420.267 602.429 419.347 593.11 420.137C581.324 421.132 569.568 425.419 558.369 429.13C554.075 427.267 549.02 431.061 547.786 435.583C547.348 437.276 547.214 439.034 547.388 440.774C548.292 442.593 549.65 444.148 551.33 445.29Z" fill="black"/>
<path opacity="0.06" d="M531.865 294.542C531.865 294.542 526.311 311.684 524.567 325.984L531.865 294.542Z" fill="black"/>
<path opacity="0.06" d="M578.865 240.114C589.546 232.083 605.572 237.295 614.982 246.768C623.351 255.268 628.476 266.433 629.466 278.321C630.094 286.233 628.846 294.274 630.171 302.098C632.116 313.649 639.436 323.625 642.32 334.983C644.411 343.225 644.095 351.875 643.635 360.341C642.513 379.805 640.575 399.205 637.821 418.541C636.698 426.399 635.197 434.752 629.77 440.55C624.656 446.011 616.788 448.21 609.301 448.05C601.814 447.891 594.595 445.607 587.416 443.427C561.254 435.304 534.838 427.06 511.211 413.205C503.793 408.849 496.556 403.903 488.266 401.6C481.796 399.827 475.005 399.701 468.326 399.03C452.505 397.408 437.197 392.5 423.382 384.62C414.378 379.473 405.805 372.766 400.974 363.624C396.143 354.483 395.684 342.398 402.029 334.186C407.05 327.688 415.545 324.507 423.766 324.492C431.987 324.476 439.964 327.279 447.328 330.915C457.915 336.154 467.538 343.149 475.788 351.603C482.441 358.429 488.292 366.283 496.385 371.338C502.096 374.901 508.633 376.882 515.084 378.826C531.736 383.833 548.617 388.885 565.991 389.462C571.652 389.65 578.265 388.851 581.225 384.024C585.324 377.357 579.427 369.328 576.865 361.926C573.723 352.848 575.865 342.895 575.527 333.283C575.037 319.6 569.499 306.694 565.424 293.624C561.35 280.553 558.762 266.049 564.031 253.42C569.299 240.79 585.107 231.836 597.21 238.231" fill="black"/>
<path opacity="0.06" d="M579.059 253.572C589.747 245.534 602.155 234.23 611.546 243.754C619.923 252.249 625.049 263.417 626.03 275.307C626.666 283.225 625.418 291.267 626.743 299.091C628.688 310.641 636 320.611 638.891 331.975C640.99 340.224 640.674 348.874 640.207 357.333C639.089 376.802 637.151 396.203 634.393 415.534C633.277 423.399 631.777 431.751 626.349 437.549C621.236 443.011 613.36 445.202 605.88 445.05C598.401 444.897 591.174 442.606 583.987 440.419C557.826 432.296 531.409 424.053 507.782 410.197C500.372 405.849 493.128 400.896 484.845 398.599C478.375 396.826 471.584 396.7 464.898 396.023C449.079 394.405 433.773 389.499 419.961 381.62C410.949 376.466 402.385 369.765 397.546 360.617C392.708 351.469 392.263 339.398 398.601 331.178C403.622 324.681 412.124 321.506 420.338 321.484C428.551 321.462 436.536 324.271 443.908 327.914C454.495 333.153 464.118 340.148 472.367 348.602C479.027 355.435 484.879 363.289 492.964 368.337C498.682 371.907 505.22 373.888 511.671 375.832C528.323 380.839 545.196 385.884 562.578 386.468C568.239 386.656 574.845 385.851 577.812 381.03C581.903 374.356 576.006 366.327 573.451 358.932C570.309 349.854 572.452 339.901 572.113 330.289C571.631 316.612 566.085 303.7 562.011 290.629C557.936 277.559 555.356 263.062 560.617 250.426C565.878 237.789 576.628 269.164 588.738 275.551" fill="black"/>
<path d="M577.16 238.585C587.841 230.554 603.867 235.766 613.277 245.239C621.651 253.74 626.779 264.908 627.768 276.799C628.397 284.71 627.149 292.752 628.474 300.576C630.419 312.126 637.739 322.103 640.622 333.46C642.721 341.71 642.405 350.359 641.945 358.825C640.823 378.29 638.882 397.688 636.124 417.019C635.008 424.884 633.507 433.236 628.08 439.034C622.966 444.496 615.098 446.694 607.611 446.535C600.125 446.375 592.905 444.091 585.726 441.911C559.564 433.788 533.148 425.544 509.513 411.682C502.103 407.334 494.859 402.381 486.576 400.084C480.106 398.311 473.315 398.185 466.629 397.508C450.81 395.89 435.504 390.984 421.692 383.105C412.68 377.951 404.115 371.25 399.277 362.102C394.438 352.954 393.994 340.883 400.339 332.67C405.353 326.166 413.855 322.991 422.076 322.976C430.297 322.961 438.274 325.763 445.638 329.399C456.225 334.638 465.848 341.633 474.098 350.087C480.751 356.913 486.602 364.767 494.688 369.815C500.406 373.385 506.943 375.366 513.394 377.31C530.046 382.318 546.927 387.369 564.301 387.947C569.962 388.135 576.568 387.329 579.535 382.508C583.626 375.834 577.737 367.813 575.175 360.41C572.025 351.326 574.168 341.373 573.837 331.767C573.347 318.084 567.809 305.178 563.734 292.108C559.66 279.038 557.079 264.54 562.348 251.911C567.617 239.281 583.424 230.327 595.528 236.722" fill="#FFC2A1"/>
<path opacity="0.06" d="M523.44 190.151C523.44 190.151 523.119 205.727 503.557 218.312C503.542 218.299 516.888 211.611 523.44 190.151Z" fill="black"/>
<path d="M439.312 113.187C440.366 107.16 444.343 102.154 448.644 97.961C457.116 89.6622 467.584 83.2859 479.04 80.5293C484.839 79.2195 490.761 78.532 496.715 78.4777C502.476 78.2493 508.254 78.6146 513.961 79.5683C523.421 81.3265 532.358 85.4224 540.002 91.5034C541.277 91.3183 542.566 91.2448 543.856 91.2835C549.01 91.4411 554.021 93.2168 558.732 95.4499C562.647 97.2007 566.3 99.5315 569.572 102.368C573.485 106.05 576.626 110.518 578.796 115.489C585.883 130.972 585.479 148.693 586.091 165.708C586.703 182.723 588.936 200.958 599.815 213.909C603.926 218.817 609.048 222.621 613.314 227.338C617.579 232.056 621.074 238.105 620.703 244.494C620.294 252.253 614.414 258.448 612.282 265.829C611.039 270.623 611.363 275.728 613.204 280.359C615.045 284.991 618.302 288.894 622.475 291.467C617.252 294.789 610.428 294.027 604.572 291.926C599.96 290.4 595.74 287.794 592.247 284.313C583.375 274.994 583.084 260.436 578.03 248.493C571.365 232.876 556.05 221.064 553.975 204.195C552.581 192.835 557.586 182.021 561.008 171.236C563.291 164.042 564.9 156.631 565.815 149.103C566.48 143.728 566.722 138.059 564.656 133.039C564.002 131.511 563.179 130.065 562.204 128.728C562.243 128.904 562.283 129.08 562.323 129.256C563.305 134.074 563.332 139.032 562.402 143.833C558.926 159.408 542.368 168.602 537.934 183.898C535.183 181.922 532.314 179.847 530.691 176.828C529.254 174.136 528.966 170.991 528.175 168.037C525.978 159.777 519.307 153.035 511.48 150.291C507.891 149.045 504.125 148.464 500.357 148.574C496.048 148.741 491.616 150.356 487.811 147.179C485.035 144.888 484.197 140.933 482.883 137.494C481.711 134.42 480.05 131.562 477.97 129.041C476.874 127.532 475.378 126.382 473.666 125.733C472.393 125.418 471.076 125.359 469.788 125.559C466.177 125.901 462.599 126.512 459.081 127.387C455.014 128.414 450.724 129.784 446.723 128.402C441.079 126.409 438.268 119.261 439.312 113.187Z" fill="#464353"/>
<path d="M705.866 539.65C715.87 539.514 725.417 534.999 732.414 527.095C739.41 519.191 743.284 508.543 743.186 497.487V260.044C743.296 254.551 742.412 249.089 740.585 243.979C738.759 238.87 736.028 234.214 732.551 230.287C729.075 226.359 724.924 223.239 720.341 221.108C715.759 218.978 710.837 217.881 705.866 217.881C700.895 217.881 695.973 218.978 691.391 221.108C686.808 223.239 682.657 226.359 679.181 230.287C675.704 234.214 672.973 238.87 671.147 243.979C669.32 249.089 668.436 254.551 668.546 260.044V497.487C668.448 508.543 672.322 519.191 679.318 527.095C686.314 534.999 695.862 539.514 705.866 539.65Z" fill="#988888"/>
<path d="M514.295 69.3954C509.94 71.3827 505.735 73.6919 501.745 76.2874C500.343 77.0573 499.212 78.1698 498.57 79.4103C498.313 80.3287 498.336 81.2271 498.639 82.0197C500.083 87.2628 503.115 91.8312 507.495 95.3646C510.775 97.682 516.788 96.752 521.235 97.4248C538.52 100.057 546.988 114.521 548.119 129.441C549.251 144.361 544.633 160.458 544.03 175.691C543.426 190.924 547.152 207.164 562.431 214.603C568.534 217.371 576.694 217.811 578.635 223.711C581.078 230.907 576.184 241.408 575.708 249.197C575.492 258.31 578.063 266.746 583.195 273.762C588.982 282.745 598.423 289.357 610.315 292.754C619.174 294.923 629.199 294.901 639.372 292.688C649.546 290.476 659.506 286.152 668.242 280.157C671.953 277.685 675.125 274.663 677.511 271.325C681.468 265.307 681.025 258.902 681.716 252.688C683.927 232.605 698.967 211.327 697.225 192.042C695.32 171.67 675.076 159.284 653.938 151.564C644.063 147.96 633.486 144.843 626.347 138.471C616.713 129.838 614.759 116.495 610.188 104.83C605.744 93.388 598.6 83.2364 589.088 74.8458C582.165 68.8128 573.038 62.4341 562.142 61.0542C546.916 59.2226 529.988 62.1736 514.295 69.3954Z" fill="#464353"/>
</svg>
