<svg width="260" height="507" viewBox="0 0 260 507" fill="none" xmlns="http://www.w3.org/2000/svg">
<path d="M245.115 432.517L247.496 456.327L239.559 458.708L233.21 452.359L230.829 432.517H245.115Z" fill="#FC9A64"/>
<path d="M130.826 446.01L126.858 461.089L115.747 468.232L103.841 461.883L117.334 439.66L130.826 446.01Z" fill="#FC9A64"/>
<path d="M178.446 201.56V210.29C178.446 210.29 172.89 216.639 175.271 220.608C177.652 224.576 180.033 232.513 180.033 232.513L168.922 249.973L131.62 253.148L124.202 203.449L178.446 201.56Z" fill="#FC9A64"/>
<path d="M172.89 232.513C172.89 232.513 181.621 226.957 187.176 236.481C192.732 246.005 203.05 248.386 209.399 276.958C215.748 305.53 230.828 350.769 234.797 353.944C238.765 357.119 255.432 390.453 245.908 437.279H230.034L216.542 369.817C216.542 369.817 172.89 315.848 169.716 293.625L155.43 376.96C155.43 376.96 154.636 408.707 142.731 423.787L130.032 453.946L113.365 446.01L132.413 369.817C132.413 369.817 122.889 292.832 129.239 271.403L130.151 243.309C130.151 243.309 156.223 244.418 172.89 232.513Z" fill="#2F2E41"/>
<path d="M239.559 452.359H249.083C250.67 452.359 263.369 462.677 257.813 468.232C252.257 473.788 243.527 484.106 243.527 484.106C243.527 484.106 212.574 488.042 211.78 482.487C210.986 476.931 225.272 465.058 225.272 465.058L229.241 452.359C229.241 452.359 237.178 443.629 239.559 452.359Z" fill="#2F2E41"/>
<path d="M113.365 460.296C113.365 460.296 126.858 459.502 129.239 458.708C131.62 457.915 136.382 479.344 129.239 480.931C122.096 482.519 92.7298 484.9 92.7298 484.9C92.7298 484.9 69.7134 484.106 71.3007 477.756C72.8881 471.407 103.841 458.709 103.841 458.709C103.841 458.709 107.81 450.772 113.365 460.296Z" fill="#2F2E41"/>
<path d="M146.222 44.0164C148.919 47.0262 152.612 48.9608 156.622 49.464C163.555 50.4545 158.108 61.3497 158.108 61.3497C158.108 61.3497 160.089 57.3878 156.127 53.9212C152.165 50.4545 146.222 48.4735 146.222 44.0164Z" fill="#2F2E41"/>
<path d="M159.59 72.1765C154.868 72.1765 151.041 68.3491 151.041 63.6279C151.041 58.9066 154.868 55.0793 159.59 55.0793C164.311 55.0793 168.138 58.9066 168.138 63.6279C168.138 68.3491 164.311 72.1765 159.59 72.1765Z" fill="#2F2E41"/>
<path d="M149.609 72.0455C156.213 68.596 167.575 65.8828 173.611 66.0768L172.084 60.2389C166.74 63.8695 155.439 66.6333 148.082 66.2076L149.609 72.0455Z" fill="#6C63FF"/>
<path d="M28.2301 -3.18612e-06L25.8684 506.939L32.8484 506.971L35.2077 0.539713L28.2301 -3.18612e-06Z" fill="#2F2E41"/>
<path d="M168.641 131.468C151.7 131.468 137.967 117.895 137.967 101.152C137.967 84.4092 151.7 70.8365 168.641 70.8365C185.582 70.8365 199.315 84.4092 199.315 101.152C199.315 117.895 185.582 131.468 168.641 131.468Z" fill="#2F2E41"/>
<path d="M178.446 123.591C178.446 123.591 176.859 151.829 180.033 151.829C183.208 151.829 160.192 165.163 160.192 165.163L145.906 157.32V147.907C145.906 147.907 164.954 145.554 157.017 125.16C149.08 104.766 178.446 123.591 178.446 123.591Z" fill="#FC9A64"/>
<path d="M170.906 135.749C158.195 135.749 147.89 125.565 147.89 113.002C147.89 100.439 158.195 90.2545 170.906 90.2545C183.618 90.2545 193.923 100.439 193.923 113.002C193.923 125.565 183.618 135.749 170.906 135.749Z" fill="#FC9A64"/>
<path d="M184.795 198.108L190.351 195.754C190.351 195.754 199.875 190.264 200.669 179.282C201.462 168.301 192.732 154.182 192.732 154.182L180.033 150.26L165.113 162.261L164.954 181.636L184.795 198.108Z" fill="#FC9A64"/>
<path d="M190.351 155.751L193.526 154.182C193.526 154.182 209.399 153.398 210.987 172.223C212.574 191.048 218.13 222.423 218.13 222.423C218.13 222.423 230.828 244.386 230.034 267.918L236.384 288.312C236.384 288.312 245.114 318.119 234.797 318.119C224.479 318.119 225.273 285.959 225.273 285.959C225.273 285.959 206.225 240.464 204.637 232.621C203.05 224.777 189.557 187.911 193.526 177.714C197.494 167.517 190.351 155.751 190.351 155.751Z" fill="#FC9A64"/>
<path d="M143.525 150.26L137.175 147.122C137.175 147.122 123.683 137.71 112.572 136.141L78.4438 113.394L56.221 60.8401C56.221 60.8401 57.0147 32.6022 50.6654 35.7397C44.316 38.8773 45.1096 63.1932 45.1096 63.1932C45.1096 63.1932 57.0146 111.825 67.3324 125.16C77.6501 138.494 114.953 160.457 114.953 160.457C114.953 160.457 125.27 172.223 124.477 177.714C123.683 183.204 143.525 150.26 143.525 150.26Z" fill="#FC9A64"/>
<path d="M176.065 149.476L180.033 147.122L184.795 151.044C184.795 151.044 170.509 160.457 173.684 169.085C176.859 177.714 190.351 195.754 190.351 195.754C190.351 195.754 178.446 209.089 178.446 213.795C178.446 213.795 147.493 202.814 124.477 213.795C124.477 213.795 124.477 198.108 121.302 194.97C118.127 191.833 116.54 180.851 124.477 171.439C130.068 164.512 135.11 157.17 139.556 149.476L147.493 144.769L151.581 146.051C151.581 146.051 143.525 154.966 151.461 155.751C159.398 156.535 172.097 154.182 176.065 149.476Z" fill="#6C63FF"/>
<path d="M163.253 77.6755C163.253 77.6755 173.66 90.8993 194.474 93.8379C215.288 96.7765 198.934 129.101 198.934 129.101C198.934 129.101 204.881 117.347 192.987 107.062C181.094 96.7765 163.253 90.8993 163.253 77.6755Z" fill="#2F2E41"/>
<path d="M162.46 76.8911C162.46 76.8911 156.513 97.4614 147.593 100.4C138.672 103.339 143.133 134.194 158 137.133C158 137.133 145.363 120.236 152.796 107.012C160.23 93.7882 164.69 83.503 162.46 76.8911Z" fill="#2F2E41"/>
<path opacity="0.5" d="M28.301 35.342C30.5065 33.9902 32.1677 34.6062 32.2218 37.0223L33.8072 90.9433C33.804 92.5456 33.3226 94.2912 32.4114 96.004L47.2773 97.8179C48.1817 96.1023 48.6662 94.3562 48.6844 92.747L47.1128 38.841C46.9669 37.2989 46.3993 35.9611 45.4555 34.9352C44.5117 33.9093 43.2181 33.2238 41.6787 32.9339L37.3551 32.4098C35.9495 32.324 34.4224 32.5395 32.8662 33.0435C31.3101 33.5475 29.757 34.3294 28.301 35.342Z" fill="black"/>
</svg>
