<svg width="69" height="70" viewBox="0 0 69 70" fill="none" xmlns="http://www.w3.org/2000/svg">
<path d="M68 28C68 42.7268 53.2067 55 34.5 55C15.7933 55 1 42.7268 1 28C1 13.2732 15.7933 1 34.5 1C53.2067 1 68 13.2732 68 28Z" fill="#A4BBFF" stroke="#3A5ECA" stroke-width="2"/>
<path d="M18.8608 47.6H37.3196C34.3387 47.3289 25.2813 46.5155 18.8608 44.7533V47.6ZM34.7973 18.6589C33.6508 18.6589 32.5043 18.5233 31.3578 18.1844C31.0138 18.93 30.4406 19.4722 29.7527 19.8789C30.8992 20.8956 33.3068 22.2511 34.7973 23.0644C36.1731 22.1833 38.6954 20.4889 39.9566 19.6756C39.3833 19.3367 38.8101 18.7944 38.3515 18.1844C37.205 18.4556 35.9438 18.6589 34.7973 18.6589ZM34.7973 17.1C38.1222 17.1 42.0203 15.0667 42.7082 10.6611C43.1668 7.54333 39.154 4.9 34.7973 4.9C30.3259 4.9 26.1985 7.54333 26.8864 10.6611C27.345 13.6433 29.982 17.1 34.7973 17.1Z" fill="#3A5ECA"/>
<path d="M23.4469 27.0633C23.5615 26.7244 24.0201 26.3856 24.708 26.4533C25.2813 26.5211 25.8545 26.7922 25.7399 27.1989L24.9373 31.74C33.8801 27.8089 41.1031 22.3189 42.9375 20.8278C42.7082 20.76 42.3643 20.6244 42.135 20.5567C42.0203 20.4889 41.791 20.4211 41.6764 20.4211C40.1859 21.4378 36.7464 23.7422 35.5999 24.42C35.1413 24.6911 34.4534 24.6911 34.1094 24.42C33.8801 24.3522 29.8673 22.2511 27.9183 20.6244C23.3322 21.98 16.7971 24.4878 16.9118 26.3178V26.3856L15.536 34.8578C17.829 34.3156 20.122 33.57 22.415 32.7567L23.4469 27.0633ZM45.0012 32.4178C43.6254 34.7222 42.2496 37.4333 41.2178 40.4156C42.2496 40.5511 43.5108 40.7544 45.0012 41.2967V32.4178ZM40.7591 41.7033C40.3005 43.2622 39.9566 44.8889 39.7273 46.5833C44.3133 47.4644 46.9503 47.0578 48.2114 46.5156C48.4407 45.9056 45.8038 42.1778 40.7591 41.7033Z" fill="#3A5ECA"/>
<path d="M48.0968 22.9967C45.9184 24.7589 39.498 30.1811 35.9438 35.0611C35.7145 35.4 35.0266 35.5356 34.4534 35.4C33.8801 35.2645 33.6508 34.8578 33.8801 34.5189C37.6636 29.3678 44.3133 23.81 46.377 22.1156C45.9184 21.9122 45.4598 21.7089 45.0012 21.5733C42.5936 23.5389 29.5234 33.6378 15.3067 36.4844L14.7334 38.45C14.1602 40.3478 15.6506 42.3133 18.4022 43.1944C24.2494 45.0922 34.1094 46.0411 37.4343 46.3122C39.0394 34.8578 47.4089 25.3011 49.014 23.6067C48.6701 23.3356 48.4408 23.1322 48.0968 22.9967ZM30.6699 33.57C28.8355 34.8578 24.4787 36.9589 24.2494 37.0267C23.7908 37.23 23.1029 37.23 22.6443 36.8911C22.3004 36.62 22.3004 36.1456 22.8736 35.9422C22.8736 35.9422 27.345 33.8411 28.9501 32.6889C29.4087 32.4178 30.0966 32.35 30.5552 32.6211C31.0138 32.8922 31.1285 33.2989 30.6699 33.57ZM53.7147 29.7745C53.4854 27.6056 52.2242 25.9789 50.6191 24.6233C49.9312 25.4367 48.6701 26.9278 47.2942 28.8933V42.5167C48.2114 43.2622 50.7338 45.3633 50.5045 46.6511C50.3898 47.1256 49.9312 47.3967 49.7019 47.5322C49.5873 47.5322 49.5873 47.6 49.4726 47.6H53.8293C54.9758 44.0756 54.0586 33.1633 53.7147 29.7745Z" fill="#3A5ECA"/>
<path d="M29.198 37.8552L29.3916 38.1168" stroke="#FF3E5B" stroke-miterlimit="10"/>
<path d="M16.6143 65.2031C16.6143 65.0371 16.5882 64.8906 16.5361 64.7637C16.4873 64.6335 16.3994 64.5163 16.2725 64.4121C16.1488 64.3079 15.9762 64.2087 15.7549 64.1143C15.5368 64.0199 15.2601 63.9238 14.9248 63.8262C14.5732 63.722 14.2559 63.6064 13.9727 63.4795C13.6895 63.3493 13.4469 63.2012 13.2451 63.0352C13.0433 62.8691 12.8887 62.6787 12.7812 62.4639C12.6738 62.249 12.6201 62.0033 12.6201 61.7266C12.6201 61.4499 12.6771 61.1943 12.791 60.96C12.9049 60.7256 13.0677 60.5221 13.2793 60.3496C13.4941 60.1738 13.7497 60.0371 14.0459 59.9395C14.3421 59.8418 14.6725 59.793 15.0371 59.793C15.571 59.793 16.0234 59.8955 16.3945 60.1006C16.7689 60.3024 17.0537 60.5677 17.249 60.8965C17.4443 61.222 17.542 61.5703 17.542 61.9414H16.6045C16.6045 61.6745 16.5475 61.4385 16.4336 61.2334C16.3197 61.0251 16.1471 60.8623 15.916 60.7451C15.6849 60.6247 15.3919 60.5645 15.0371 60.5645C14.7018 60.5645 14.4251 60.6149 14.207 60.7158C13.9889 60.8167 13.8262 60.9535 13.7188 61.126C13.6146 61.2985 13.5625 61.4954 13.5625 61.7168C13.5625 61.8665 13.5934 62.0033 13.6553 62.127C13.7204 62.2474 13.8197 62.3597 13.9531 62.4639C14.0898 62.568 14.2624 62.6641 14.4707 62.752C14.6823 62.8398 14.9346 62.9245 15.2275 63.0059C15.6312 63.1198 15.9795 63.2467 16.2725 63.3867C16.5654 63.5267 16.8063 63.6846 16.9951 63.8604C17.1872 64.0329 17.3288 64.2298 17.4199 64.4512C17.5143 64.6693 17.5615 64.9167 17.5615 65.1934C17.5615 65.4831 17.5029 65.7451 17.3857 65.9795C17.2686 66.2139 17.1009 66.4141 16.8828 66.5801C16.6647 66.7461 16.4027 66.8747 16.0967 66.9658C15.7939 67.0537 15.4554 67.0977 15.0811 67.0977C14.7523 67.0977 14.4284 67.0521 14.1094 66.9609C13.7936 66.8698 13.5055 66.7331 13.2451 66.5508C12.988 66.3685 12.7812 66.1439 12.625 65.877C12.472 65.6068 12.3955 65.2943 12.3955 64.9395H13.333C13.333 65.1836 13.3802 65.3936 13.4746 65.5693C13.569 65.7419 13.6976 65.8851 13.8604 65.999C14.0264 66.113 14.2135 66.1976 14.4219 66.2529C14.6335 66.305 14.8532 66.3311 15.0811 66.3311C15.4098 66.3311 15.6882 66.2855 15.916 66.1943C16.1439 66.1032 16.3164 65.973 16.4336 65.8037C16.554 65.6344 16.6143 65.4342 16.6143 65.2031ZM23.4062 62.9473V63.7139H19.5586V62.9473H23.4062ZM19.7051 59.8906V67H18.7627V59.8906H19.7051ZM24.2266 59.8906V67H23.2891V59.8906H24.2266ZM31.375 63.2207V63.6699C31.375 64.2038 31.3083 64.6823 31.1748 65.1055C31.0413 65.5286 30.8493 65.8883 30.5986 66.1846C30.348 66.4808 30.0469 66.707 29.6953 66.8633C29.347 67.0195 28.9564 67.0977 28.5234 67.0977C28.1035 67.0977 27.7178 67.0195 27.3662 66.8633C27.0179 66.707 26.7152 66.4808 26.458 66.1846C26.2041 65.8883 26.0072 65.5286 25.8672 65.1055C25.7272 64.6823 25.6572 64.2038 25.6572 63.6699V63.2207C25.6572 62.6868 25.7256 62.21 25.8623 61.79C26.0023 61.3669 26.1992 61.0072 26.4531 60.7109C26.707 60.4115 27.0081 60.1836 27.3564 60.0273C27.708 59.8711 28.0938 59.793 28.5137 59.793C28.9466 59.793 29.3372 59.8711 29.6855 60.0273C30.0371 60.1836 30.3382 60.4115 30.5889 60.7109C30.8428 61.0072 31.0365 61.3669 31.1699 61.79C31.3066 62.21 31.375 62.6868 31.375 63.2207ZM30.4424 63.6699V63.2109C30.4424 62.7878 30.3984 62.4134 30.3105 62.0879C30.2259 61.7624 30.1006 61.4889 29.9346 61.2676C29.7686 61.0462 29.5651 60.8786 29.3242 60.7646C29.0866 60.6507 28.8164 60.5938 28.5137 60.5938C28.2207 60.5938 27.9554 60.6507 27.7178 60.7646C27.4834 60.8786 27.2816 61.0462 27.1123 61.2676C26.9463 61.4889 26.8177 61.7624 26.7266 62.0879C26.6354 62.4134 26.5898 62.7878 26.5898 63.2109V63.6699C26.5898 64.0964 26.6354 64.474 26.7266 64.8027C26.8177 65.1283 26.9479 65.4033 27.1172 65.6279C27.2897 65.8493 27.4932 66.0169 27.7275 66.1309C27.9652 66.2448 28.2305 66.3018 28.5234 66.3018C28.8294 66.3018 29.1012 66.2448 29.3389 66.1309C29.5765 66.0169 29.7767 65.8493 29.9395 65.6279C30.1055 65.4033 30.2308 65.1283 30.3154 64.8027C30.4001 64.474 30.4424 64.0964 30.4424 63.6699ZM36.8535 59.8906H37.791V64.7002C37.791 65.234 37.6722 65.6784 37.4346 66.0332C37.1969 66.388 36.8812 66.6549 36.4873 66.834C36.0967 67.0098 35.6719 67.0977 35.2129 67.0977C34.7311 67.0977 34.2949 67.0098 33.9043 66.834C33.5169 66.6549 33.2093 66.388 32.9814 66.0332C32.7568 65.6784 32.6445 65.234 32.6445 64.7002V59.8906H33.5771V64.7002C33.5771 65.0713 33.6455 65.3773 33.7822 65.6182C33.9189 65.859 34.1094 66.0381 34.3535 66.1553C34.6009 66.2725 34.8874 66.3311 35.2129 66.3311C35.5417 66.3311 35.8281 66.2725 36.0723 66.1553C36.3197 66.0381 36.5117 65.859 36.6484 65.6182C36.7852 65.3773 36.8535 65.0713 36.8535 64.7002V59.8906ZM43.582 66.2334V67H40.0273V66.2334H43.582ZM40.2129 59.8906V67H39.2705V59.8906H40.2129ZM46.585 67H45.1006L45.1104 66.2334H46.585C47.0928 66.2334 47.516 66.1276 47.8545 65.916C48.193 65.7012 48.4469 65.4017 48.6162 65.0176C48.7887 64.6302 48.875 64.1777 48.875 63.6602V63.2256C48.875 62.8187 48.8262 62.4574 48.7285 62.1416C48.6309 61.8226 48.4876 61.554 48.2988 61.3359C48.11 61.1146 47.8789 60.9469 47.6055 60.833C47.3353 60.7191 47.0244 60.6621 46.6729 60.6621H45.0713V59.8906H46.6729C47.1383 59.8906 47.5632 59.9688 47.9473 60.125C48.3314 60.278 48.6618 60.501 48.9385 60.7939C49.2184 61.0837 49.4333 61.4352 49.583 61.8486C49.7327 62.2588 49.8076 62.721 49.8076 63.2354V63.6602C49.8076 64.1745 49.7327 64.6383 49.583 65.0518C49.4333 65.4619 49.2168 65.8118 48.9336 66.1016C48.6536 66.3913 48.3151 66.6143 47.918 66.7705C47.5241 66.9235 47.0798 67 46.585 67ZM45.6035 59.8906V67H44.6611V59.8906H45.6035ZM55.7402 66.2334V67H51.9756V66.2334H55.7402ZM52.166 59.8906V67H51.2236V59.8906H52.166ZM55.2422 62.9473V63.7139H51.9756V62.9473H55.2422ZM55.6914 59.8906V60.6621H51.9756V59.8906H55.6914ZM56.9072 59.8906H59.2607C59.7946 59.8906 60.2454 59.972 60.6133 60.1348C60.9844 60.2975 61.266 60.5384 61.458 60.8574C61.6533 61.1732 61.751 61.5622 61.751 62.0244C61.751 62.3499 61.6842 62.6478 61.5508 62.918C61.4206 63.1849 61.2318 63.4128 60.9844 63.6016C60.7402 63.7871 60.4473 63.9255 60.1055 64.0166L59.8418 64.1191H57.6299L57.6201 63.3525H59.29C59.6286 63.3525 59.9102 63.2939 60.1348 63.1768C60.3594 63.0563 60.5286 62.8952 60.6426 62.6934C60.7565 62.4915 60.8135 62.2686 60.8135 62.0244C60.8135 61.751 60.7598 61.5117 60.6523 61.3066C60.5449 61.1016 60.3757 60.9437 60.1445 60.833C59.9167 60.7191 59.6221 60.6621 59.2607 60.6621H57.8496V67H56.9072V59.8906ZM61.0625 67L59.334 63.7773L60.3154 63.7725L62.0684 66.9414V67H61.0625Z" fill="black"/>
</svg>
