<svg width="159" height="359" viewBox="0 0 159 359" fill="none" xmlns="http://www.w3.org/2000/svg">
<path d="M27.377 38.8977C26.1657 39.9329 25.0202 41.0458 23.9584 42.2189C23.5766 42.5899 23.2993 43.0316 23.1798 43.4588C23.1582 43.7521 23.2215 44.01 23.3637 44.2078C24.1339 45.5748 25.3488 46.5788 26.9127 47.1406C28.063 47.4662 29.8492 46.5623 31.2549 46.2882C36.7201 45.2273 40.2199 48.5257 41.4981 52.73C42.7763 56.9343 42.3648 62.086 43.1305 66.5642C43.8962 71.0423 46.0522 75.3553 51.2025 75.8992C53.2468 76.0574 55.7767 75.3241 56.7403 76.8293C57.9388 78.6568 57.0931 82.2162 57.4333 84.5237C57.9357 87.1871 59.2508 89.3606 61.2625 90.8526C63.598 92.8451 66.9061 93.765 70.7652 93.4949C73.6173 93.189 76.6903 92.1249 79.6723 90.4104C82.6543 88.6959 85.4391 86.3922 87.7439 83.7332C88.7278 82.6255 89.512 81.4151 90.0356 80.196C90.8733 78.0347 90.3376 76.2253 90.1619 74.3515C89.5863 68.2984 92.8707 60.5455 91.1328 55.1406C89.2774 49.4379 82.2959 47.9843 75.3314 47.9773C72.0781 47.9747 68.6395 48.1873 66.0526 47.0939C62.5593 45.6084 61.127 41.9478 58.9972 39.0496C56.9201 36.2028 54.0957 34.0146 50.6549 32.5866C48.1553 31.5686 44.9581 30.683 41.5304 31.4327C36.7465 32.5082 31.7392 35.1493 27.377 38.8977Z" fill="#322D2D"/>
<path d="M131.337 346.141L137.536 344.071L131.521 319.717L121.159 323.473L131.337 346.141Z" fill="#FFAA7C"/>
<path d="M137.982 343.848L129.034 341.357C128.847 341.296 128.644 341.312 128.465 341.402C128.287 341.491 128.147 341.648 128.074 341.839L125.055 349.244C124.985 349.48 124.961 349.728 124.984 349.972C125.007 350.216 125.077 350.452 125.19 350.665C125.303 350.879 125.457 351.066 125.642 351.216C125.826 351.366 126.039 351.476 126.267 351.538C130.219 352.579 132.18 352.857 137.154 354.239C140.225 355.048 141.976 355.933 146.21 357.11C150.444 358.287 151.616 354.056 149.942 353.18C142.439 349.23 141.673 347.994 139.525 344.957C139.145 344.42 138.603 344.03 137.982 343.848Z" fill="#263238"/>
<path d="M83.3286 138.4C83.3286 138.4 103.01 207.251 112.553 236.582C119.889 268.524 135.008 332.289 135.008 332.289L127.973 339.165C127.973 339.165 108.213 297.188 99.7727 250.397C79.7136 207.213 61.9949 167.772 63.979 149.815C70.2434 137.404 83.3286 138.4 83.3286 138.4Z" fill="#423E1A"/>
<path d="M22.5811 333.256C23.3362 334.759 23.1453 338.118 20.8642 341.521C18.5831 344.923 18.9807 354.874 14.4969 356.04C9.49263 357.344 8.16116 348.579 9.53346 344.804C10.3005 342.656 12.7805 339.564 13.136 334.815C13.2748 332.126 20.3853 328.909 22.5811 333.256Z" fill="#263238"/>
<path d="M17.4561 337.859C18.3306 338.077 19.2539 337.976 20.0611 337.576C20.8684 337.176 21.5071 336.501 21.8633 335.674L29.9199 318.28L19.3405 315.015L14.6412 333.21C14.5148 333.701 14.4876 334.211 14.5613 334.712C14.635 335.213 14.808 335.694 15.0703 336.127C15.3325 336.56 15.6786 336.937 16.0884 337.234C16.4981 337.532 16.9631 337.744 17.4561 337.859Z" fill="#FFAA7C"/>
<path d="M81.5601 144.481C81.5601 144.481 62.88 212.474 55.1833 239.369C47.188 267.334 27.7514 323.756 27.7514 323.756L17.6824 321.679C17.6824 321.679 28.3032 259.212 36.8897 234.799C42.5828 189.502 43.478 152.163 55.5379 141.581L81.5601 144.481Z" fill="#423E1A"/>
<path opacity="0.2" d="M85.9519 205.348C80.5911 198.157 75.7087 190.516 71.3457 182.49L70.1222 162.297L71.969 161.007C76.5481 171.097 82.1257 189.776 85.9519 205.348Z" fill="#8A6B6B"/>
<path d="M44.0534 103.388C42.8801 105.618 41.597 108.091 40.4519 110.511C39.3068 112.93 38.1158 115.392 37.0263 117.907C35.9368 120.421 34.921 122.914 33.9052 125.428C32.8894 127.942 31.9752 130.519 31.1624 133.096L30.6598 134.596C30.5959 134.802 30.5653 135.02 30.5694 135.239C30.6225 136.058 30.8325 136.853 31.1843 137.568C32.2387 139.69 33.5609 141.622 35.108 143.302C36.793 145.219 38.5736 147.022 40.4408 148.703C42.2889 150.447 44.321 152.117 46.2792 153.681L46.3623 153.755C46.8183 154.116 47.1406 154.658 47.2663 155.276C47.3919 155.894 47.312 156.543 47.0419 157.097C46.7719 157.652 46.3313 158.071 45.8058 158.273C45.2804 158.476 44.708 158.447 44.2001 158.193C39.332 155.875 34.7479 152.843 30.563 149.173C28.2536 147.164 26.2453 144.738 24.6169 141.991C23.6185 140.273 22.956 138.329 22.6747 136.292C22.5277 135.082 22.5554 133.852 22.7565 132.653C22.806 132.343 22.8697 132.036 22.9474 131.734L23.1023 131.122L23.3942 130.066C24.9253 124.384 26.8129 118.835 29.0422 113.464C30.1589 110.792 31.2849 108.13 32.5308 105.541C33.7768 102.952 35.0321 100.426 36.5452 97.805C37.1862 96.6628 38.1953 95.8567 39.3531 95.5621C40.5108 95.2675 41.7234 95.5082 42.7267 96.2319C43.7301 96.9556 44.4431 98.1036 44.7105 99.4261C44.9779 100.749 44.7781 102.138 44.1545 103.293L44.0534 103.388Z" fill="#FFAA7C"/>
<path d="M35.9036 105.518C37.6872 113.78 43.449 127.46 49.9809 152.676L85.2429 144.106C81.8359 128.857 79.6886 119.13 79.9702 88.5406C79.9765 87.8052 79.851 87.0761 79.6014 86.3984C79.3518 85.7207 78.9834 85.1088 78.5191 84.6004C78.0547 84.0921 77.5042 83.6981 76.9015 83.4429C76.2989 83.1877 75.6569 83.0766 75.0153 83.1166C71.5874 83.3071 68.1708 83.7071 64.7802 84.3149C59.4167 85.1607 54.1137 86.4495 48.9127 88.1712C46.8965 88.8854 44.807 89.7264 42.8832 90.5458C40.3163 91.6246 38.1861 93.747 36.8988 96.5083C35.6115 99.2695 35.2573 102.477 35.9036 105.518Z" fill="#FFAA7C"/>
<path opacity="0.2" d="M76.4208 91.254C76.5391 93.9537 78.3346 99.8959 80.0389 102.948C79.9754 100.059 79.9481 96.9471 79.9384 93.5403L76.4208 91.254Z" fill="#322D2D"/>
<path d="M20.3283 63.0691C17.5766 67.6148 20.8964 74.8802 29.2069 77.4123C36.4012 79.6005 50.522 74.0209 50.522 74.0209C51.5583 68.9729 52.1854 63.8261 52.3952 58.6462C52.7848 49.8481 49.8162 33.2363 36.9275 37.8303C24.6077 35.0811 11.0384 53.1363 20.3283 63.0691Z" fill="#322D2D"/>
<path opacity="0.2" d="M55.2712 107.513C54.2561 103.772 57.252 97.6012 60.0299 95.7872C58.2482 97.9139 55.5752 104.221 55.2712 107.513Z" fill="#322D2D"/>
<path d="M52.2072 67.0954C53.4682 73.0184 56.5574 83.4384 61.3364 85.3086C61.3364 85.3086 62.2756 91.4965 53.4511 96.1492C43.7708 101.269 46.6044 93.0949 46.6044 93.0949C51.3015 88.8584 49.3445 84.4462 46.7351 80.7116L52.2072 67.0954Z" fill="#FFAA7C"/>
<path opacity="0.2" d="M49.9838 72.6518L46.7352 80.7116C47.3607 81.5688 47.9185 82.488 48.4018 83.4583C50.68 84.146 52.6466 78.9598 51.8837 76.4207C51.4115 75.0667 50.7716 73.7974 49.9838 72.6518Z" fill="#322D2D"/>
<path d="M40.0774 53.3762C47.4652 58.7701 50.6322 60.8783 52.3935 67.7804C55.0403 78.1493 47.6293 87.29 39.0233 84.5164C31.2751 82.0138 20.5611 73.6052 21.7017 63.1378C21.9424 60.8309 22.6944 58.6328 23.8862 56.7522C25.0781 54.8716 26.6703 53.371 28.5115 52.3929C30.3527 51.4148 32.3818 50.9917 34.4061 51.1638C36.4304 51.3359 38.3827 52.0974 40.0774 53.3762Z" fill="#FFAA7C"/>
<path d="M18.8537 69.4874C25.416 76.2556 30.9357 56.6588 45.8604 61.55C44.07 54.1734 33.8851 40.605 23.3555 51.677C18.982 56.2815 14.4357 64.9368 18.8537 69.4874Z" fill="#322D2D"/>
<path d="M35.3193 68.5507C35.9379 68.9492 36.2438 69.602 36.0333 70.1091C35.8228 70.6161 35.1132 70.6293 34.4947 70.2308C33.8761 69.8323 33.5701 69.1795 33.7899 68.6724C34.0096 68.1653 34.7007 68.1522 35.3193 68.5507Z" fill="#322D2D"/>
<path d="M31.4069 76.5603C32.0255 76.9588 32.3315 77.6116 32.1118 78.1187C31.892 78.6258 31.1917 78.6389 30.5823 78.2404C29.973 77.8419 29.6578 77.1891 29.8683 76.682C30.0788 76.175 30.7884 76.1723 31.4069 76.5603Z" fill="#322D2D"/>
<path d="M30.0063 76.5022L28.7478 77.9308C28.7478 77.9308 30.3325 77.7983 30.0063 76.5022Z" fill="#322D2D"/>
<path d="M33.7244 74.8113C34.8309 76.3442 35.7474 78.0444 36.4481 79.8639C36.8491 79.6457 37.2038 79.3303 37.4875 78.9394C37.7712 78.5486 37.9773 78.0918 38.0913 77.6006L33.7244 74.8113Z" fill="#C28888"/>
<path d="M42.379 75.2431C42.2599 75.6093 42.1129 75.9628 41.9396 76.2995C41.9129 76.3542 41.8683 76.3944 41.8156 76.4114C41.763 76.4284 41.7066 76.4208 41.6588 76.3902C41.6111 76.3596 41.5759 76.3086 41.561 76.2483C41.5462 76.188 41.5528 76.1235 41.5796 76.0688C42.0277 75.1984 42.2899 74.2192 42.3447 73.2109C42.3995 72.2026 42.2453 71.1937 41.8948 70.2665C41.8682 70.2105 41.8619 70.1449 41.8772 70.0836C41.8926 70.0224 41.9283 69.9705 41.9768 69.9392C42.0016 69.9245 42.0286 69.9156 42.0564 69.9129C42.0842 69.9102 42.1122 69.9138 42.1387 69.9235C42.1653 69.9332 42.1899 69.9488 42.2112 69.9694C42.2325 69.99 42.2501 70.0152 42.2628 70.0436C42.5841 70.8576 42.7599 71.737 42.7799 72.6299C42.7998 73.5229 42.6635 74.4114 42.379 75.2431Z" fill="#322D2D"/>
<path d="M47.3895 54.8572C48.4722 56.3206 49.0074 58.2134 48.879 60.1254C48.6836 62.6786 46.5005 63.0454 44.8099 61.5856C43.2856 60.2622 41.554 57.3787 42.5983 55.1493C42.8356 54.6756 43.1729 54.2775 43.5792 53.9913C43.9856 53.7051 44.448 53.54 44.9245 53.5109C45.4009 53.4819 45.8761 53.5899 46.3067 53.825C46.7373 54.0602 47.1096 54.415 47.3895 54.8572Z" fill="#FFAA7C"/>
<path d="M35.4642 64.426C35.4307 64.5194 35.3732 64.5988 35.2992 64.6538C35.2253 64.7087 35.1385 64.7365 35.0503 64.7335C33.124 64.6352 31.6005 66.8558 31.5821 66.8559C31.5126 66.9465 31.4156 67.0034 31.3108 67.0151C31.2059 67.0268 31.1011 66.9924 31.0176 66.9188C30.9341 66.8453 30.8782 66.7382 30.8613 66.6192C30.8443 66.5003 30.8675 66.3783 30.9262 66.2782C30.9996 66.1725 32.7617 63.624 35.0844 63.7419C35.1952 63.7469 35.2999 63.8015 35.376 63.8939C35.452 63.9863 35.4934 64.1092 35.4913 64.2361L35.4642 64.426Z" fill="#322D2D"/>
<path d="M26.9938 76.9036C26.9637 77.0039 26.9051 77.0898 26.8274 77.1476C26.7496 77.2053 26.6572 77.2316 26.5649 77.2222C26.4726 77.2128 26.3857 77.1683 26.3181 77.0959C26.2505 77.0234 26.206 76.927 26.1918 76.8222C26.0541 76.0755 26.0758 75.3018 26.255 74.5667C26.4341 73.8315 26.7656 73.1567 27.2211 72.5994C27.261 72.5563 27.3078 72.5226 27.359 72.5003C27.4102 72.4779 27.4647 72.4673 27.5195 72.469C27.5743 72.4708 27.6282 72.4849 27.6782 72.5105C27.7282 72.5361 27.7734 72.5727 27.811 72.6183C27.8487 72.6638 27.8781 72.7175 27.8976 72.7761C27.9172 72.8347 27.9264 72.8971 27.9249 72.9598C27.9234 73.0225 27.9111 73.0842 27.8887 73.1414C27.8663 73.1987 27.8343 73.2503 27.7945 73.2934C27.4436 73.7374 27.1896 74.2702 27.0535 74.8483C26.9174 75.4263 26.903 76.0331 27.0114 76.6188C27.0354 76.7131 27.0292 76.8141 26.9938 76.9036Z" fill="#322D2D"/>
<path d="M76.3511 82.964C81.8847 84.4622 87.4832 86.0867 93.0352 87.5849L101.4 89.7898L105.522 90.8292C106.878 91.1617 108.289 91.4623 109.488 91.7004C109.992 91.7716 110.5 91.7979 111.008 91.7791C111.626 91.7768 112.271 91.7744 112.934 91.6876C114.27 91.5982 115.698 91.4347 117.034 91.2504C119.797 90.8709 122.625 90.4279 125.435 89.9323L142.41 86.8946C142.96 86.8044 143.52 86.9514 143.981 87.3072C144.441 87.6629 144.77 88.2019 144.903 88.8195C145.035 89.437 144.963 90.089 144.699 90.6487C144.435 91.2084 143.999 91.6359 143.475 91.848C137.952 93.9781 132.428 95.8761 126.765 97.5321C123.938 98.3337 121.102 99.1248 118.182 99.7685C116.727 100.09 115.254 100.391 113.724 100.639C112.96 100.758 112.177 100.867 111.348 100.933C110.428 101.015 109.504 101.018 108.583 100.943C106.97 100.76 105.504 100.522 104.029 100.264C102.553 100.006 101.115 99.7055 99.6765 99.4156C96.8056 98.8145 93.9562 98.1641 91.1281 97.4645C85.4473 96.0828 79.8308 94.5955 74.223 92.9182C73.0648 92.5896 72.068 91.7479 71.452 90.5782C70.836 89.4085 70.6512 88.0067 70.9383 86.681C71.2254 85.3554 71.9608 84.2146 72.9828 83.5096C74.0048 82.8046 75.2296 82.5931 76.3879 82.9216L76.3511 82.964Z" fill="#FFAA7C"/>
<path d="M33.9184 68.4926L32.6599 69.9212C32.6599 69.9212 34.2446 69.7887 33.9184 68.4926Z" fill="#322D2D"/>
<path d="M45.1915 153.58L49.9012 150.524L49.3944 160.272C49.3944 160.272 44.9547 161.027 43.5621 157.436L45.1915 153.58Z" fill="#FFAA7C"/>
<path d="M55.4954 153.942L53.6363 161.29L49.3943 160.272L49.901 150.524L55.4954 153.942Z" fill="#FFAA7C"/>
<path d="M69.3483 83.317C71.9444 82.3686 73.209 83.1127 73.209 83.1127C72.0318 96.9238 73.6642 110.303 80.7744 112.069C81.27 117.826 81.273 125.347 82.9882 132.217C83.0378 132.422 83.0481 132.637 83.0184 132.847C82.9886 133.057 82.9196 133.258 82.8159 133.434C82.7123 133.611 82.5765 133.76 82.4179 133.871C82.2592 133.982 82.0815 134.053 81.8968 134.078C74.5273 135.097 56.5297 138.497 47.2801 142.729C47.1115 142.805 46.9308 142.84 46.7497 142.832C46.5686 142.823 46.391 142.771 46.2285 142.679C46.0659 142.588 45.9219 142.458 45.8058 142.299C45.6896 142.139 45.6038 141.954 45.554 141.755C35.6637 102.175 39.3306 92.1516 39.3306 92.1516C40.3149 91.3026 41.4243 90.6626 42.606 90.262C42.4373 95.7473 41.5997 109.061 56.5457 105.261C71.4918 101.461 69.3483 83.317 69.3483 83.317Z" fill="#81761F"/>
<path d="M147.348 326.991L147.888 12.265C147.891 10.6556 147.825 9.06171 147.694 7.57453C147.564 6.08735 147.371 4.73592 147.127 3.59743C146.883 2.45894 146.593 1.55568 146.272 0.939212C145.952 0.322744 145.608 0.00513933 145.26 0.00454269C144.912 0.00394604 144.567 0.320369 144.245 0.935735C143.922 1.5511 143.629 2.45336 143.381 3.59101C143.133 4.72865 142.936 6.07941 142.8 7.56613C142.664 9.05286 142.593 10.6465 142.59 12.256L142.05 326.982C141.975 342.954 147.369 342.802 147.348 326.991Z" fill="#4A486A"/>
</svg>
