<svg width="411" height="524" viewBox="0 0 411 524" fill="none" xmlns="http://www.w3.org/2000/svg">
<path d="M227.514 460L221.688 491.243C221.688 491.243 216.59 500.314 221.688 504.345C224.08 506.237 225.831 510.126 227.015 513.721C228.048 516.959 229.775 519.679 231.963 521.511C234.151 523.343 236.694 524.198 239.245 523.961C241.731 523.676 243.825 522.316 244.334 518.781C244.475 517.672 244.447 516.535 244.253 515.442C244.059 514.348 243.703 513.322 243.206 512.43C237.834 502.384 236.617 495.779 236.617 495.779L238.801 460.504L227.514 460Z" fill="#FEBD99"/>
<path d="M44.9362 405.053L29.9959 425.964C29.9959 425.964 27.3509 433.707 22.5166 433.533C20.2481 433.451 17.1582 434.838 14.5173 436.334C12.1559 437.698 9.74492 438.421 7.61189 438.405C5.47886 438.389 3.72716 437.635 2.59473 436.245C1.52263 434.859 1.25846 433.046 3.02305 430.754C3.58609 430.044 4.24905 429.4 4.96973 428.864C5.69041 428.327 6.45302 427.91 7.20897 427.638C15.6131 424.472 19.9888 421.254 19.9888 421.254L39.0398 399.802L44.9362 405.053Z" fill="#FEBD99"/>
<path d="M193.422 218.492C193.422 218.492 199.244 291.455 208.356 337.327C212.722 380.762 225.734 481 225.734 481H236.184C236.184 481 254.494 404.342 237.741 334.706C252.936 259.213 243.563 214 243.563 214L193.422 218.492Z" fill="#3D3F45"/>
<path d="M371.788 222.429C371.788 222.429 356.435 172.63 374.67 135.977C382.324 120.596 384.863 103.324 381.329 86.6296C379.638 78.7033 377.191 70.9417 374.016 63.4425" stroke="#535461" stroke-width="2" stroke-miterlimit="10"/>
<path d="M385.336 40.3089C385.336 46.4148 373.767 64.0905 373.767 64.0905C373.767 64.0905 362.198 46.391 362.198 40.3089C362.162 38.8362 362.435 37.3717 363 36.0012C363.565 34.6307 364.412 33.382 365.489 32.3284C366.567 31.2748 367.854 30.4376 369.275 29.866C370.696 29.2944 372.222 29 373.764 29C375.306 29 376.832 29.2944 378.253 29.866C379.674 30.4376 380.962 31.2748 382.039 32.3284C383.117 33.382 383.963 34.6307 384.528 36.0012C385.093 37.3717 385.366 38.8362 385.33 40.3089H385.336Z" fill="#6C63FF"/>
<path d="M404.479 74.1145C401.007 79.2395 381.229 88.0863 381.229 88.0863C381.229 88.0863 381.59 67.2238 385.063 62.0988C386.766 59.7187 389.375 58.0687 392.334 57.5008C395.293 56.9328 398.367 57.492 400.901 59.059C403.434 60.626 405.226 63.0767 405.895 65.8883C406.563 68.6999 406.055 71.6497 404.479 74.1086V74.1145Z" fill="#6C63FF"/>
<path d="M403.639 131.886C397.932 134.633 376.188 132.736 376.188 132.736C376.188 132.736 387.521 114.9 393.228 112.153C394.587 111.465 396.077 111.043 397.61 110.912C399.142 110.781 400.687 110.943 402.153 111.389C403.619 111.835 404.977 112.556 406.148 113.51C407.319 114.464 408.279 115.631 408.972 116.943C409.665 118.256 410.077 119.687 410.184 121.154C410.29 122.62 410.09 124.092 409.594 125.484C409.098 126.875 408.316 128.158 407.295 129.257C406.274 130.357 405.033 131.251 403.645 131.886H403.639Z" fill="#6C63FF"/>
<path d="M392.705 175.46C387.571 179.087 365.795 180.728 365.795 180.728C365.795 180.728 373.811 161.322 378.945 157.689C380.165 156.812 381.555 156.175 383.035 155.814C384.515 155.453 386.054 155.375 387.565 155.585C389.077 155.795 390.529 156.289 391.84 157.038C393.15 157.787 394.292 158.777 395.2 159.949C396.108 161.122 396.765 162.455 397.131 163.872C397.497 165.288 397.566 166.759 397.334 168.201C397.102 169.643 396.574 171.027 395.779 172.273C394.985 173.519 393.94 174.602 392.705 175.46V175.46Z" fill="#6C63FF"/>
<path d="M356.939 89.2694C361.52 93.5204 382.872 97.9259 382.872 97.9259C382.872 97.9259 377.644 77.6699 373.064 73.413C370.848 71.4522 367.917 70.3972 364.897 70.4733C361.878 70.5494 359.009 71.7507 356.905 73.8205C354.8 75.8902 353.626 78.6643 353.633 81.5499C353.641 84.4356 354.83 87.2039 356.945 89.2635L356.939 89.2694Z" fill="#6C63FF"/>
<path d="M344.829 140.382C350.535 143.129 372.28 141.232 372.28 141.232C372.28 141.232 360.947 123.396 355.24 120.649C353.881 119.961 352.391 119.539 350.858 119.408C349.326 119.277 347.781 119.439 346.315 119.885C344.849 120.331 343.491 121.052 342.32 122.006C341.149 122.96 340.189 124.127 339.496 125.439C338.803 126.752 338.391 128.183 338.284 129.65C338.177 131.116 338.378 132.588 338.874 133.98C339.37 135.371 340.152 136.654 341.173 137.753C342.194 138.853 343.435 139.747 344.822 140.382H344.829Z" fill="#6C63FF"/>
<path d="M340.192 191.608C345.327 195.235 367.102 196.876 367.102 196.876C367.102 196.876 359.086 177.464 353.946 173.837C352.725 172.96 351.335 172.323 349.856 171.962C348.376 171.6 346.837 171.523 345.325 171.733C343.814 171.943 342.362 172.437 341.051 173.186C339.741 173.935 338.599 174.924 337.691 176.097C336.782 177.27 336.126 178.603 335.76 180.019C335.394 181.436 335.325 182.907 335.557 184.349C335.789 185.791 336.317 187.175 337.112 188.421C337.906 189.667 338.951 190.75 340.186 191.608H340.192Z" fill="#6C63FF"/>
<path d="M385.336 40.3089C385.336 46.4148 373.767 64.0905 373.767 64.0905C373.767 64.0905 362.198 46.391 362.198 40.3089C362.162 38.8362 362.435 37.3717 363 36.0012C363.565 34.6307 364.412 33.382 365.489 32.3284C366.567 31.2748 367.854 30.4376 369.275 29.866C370.696 29.2944 372.222 29 373.764 29C375.306 29 376.832 29.2944 378.253 29.866C379.674 30.4376 380.962 31.2748 382.039 32.3284C383.117 33.382 383.963 34.6307 384.528 36.0012C385.093 37.3717 385.366 38.8362 385.33 40.3089H385.336Z" fill="#526CB8"/>
<path d="M404.479 74.1145C401.007 79.2395 381.229 88.0863 381.229 88.0863C381.229 88.0863 381.59 67.2238 385.063 62.0988C386.766 59.7187 389.375 58.0687 392.334 57.5008C395.293 56.9328 398.367 57.492 400.901 59.059C403.434 60.626 405.226 63.0767 405.895 65.8883C406.563 68.6999 406.055 71.6497 404.479 74.1086V74.1145Z" fill="#526CB8"/>
<path d="M403.639 131.886C397.932 134.633 376.188 132.736 376.188 132.736C376.188 132.736 387.521 114.9 393.228 112.153C394.587 111.465 396.077 111.043 397.61 110.912C399.142 110.781 400.687 110.943 402.153 111.389C403.619 111.835 404.977 112.556 406.148 113.51C407.319 114.464 408.279 115.631 408.972 116.943C409.665 118.256 410.077 119.687 410.184 121.154C410.29 122.62 410.09 124.092 409.594 125.484C409.098 126.875 408.316 128.158 407.295 129.257C406.274 130.357 405.033 131.251 403.645 131.886H403.639Z" fill="#526CB8"/>
<path d="M392.705 175.46C387.571 179.087 365.795 180.728 365.795 180.728C365.795 180.728 373.811 161.322 378.945 157.689C380.165 156.812 381.555 156.175 383.035 155.814C384.515 155.453 386.054 155.375 387.565 155.585C389.077 155.795 390.529 156.289 391.84 157.038C393.15 157.787 394.292 158.777 395.2 159.949C396.108 161.122 396.765 162.455 397.131 163.872C397.497 165.288 397.566 166.759 397.334 168.201C397.102 169.643 396.574 171.027 395.779 172.273C394.985 173.519 393.94 174.602 392.705 175.46V175.46Z" fill="#526CB8"/>
<path d="M356.939 89.2694C361.52 93.5204 382.872 97.9259 382.872 97.9259C382.872 97.9259 377.644 77.6699 373.064 73.413C370.848 71.4522 367.917 70.3972 364.897 70.4733C361.878 70.5494 359.009 71.7507 356.905 73.8205C354.8 75.8902 353.626 78.6643 353.633 81.5499C353.641 84.4356 354.83 87.2039 356.945 89.2635L356.939 89.2694Z" fill="#526CB8"/>
<path d="M344.829 140.382C350.535 143.129 372.28 141.232 372.28 141.232C372.28 141.232 360.947 123.396 355.24 120.649C353.881 119.961 352.391 119.539 350.858 119.408C349.326 119.277 347.781 119.439 346.315 119.885C344.849 120.331 343.491 121.052 342.32 122.006C341.149 122.96 340.189 124.127 339.496 125.439C338.803 126.752 338.391 128.183 338.284 129.65C338.177 131.116 338.378 132.588 338.874 133.98C339.37 135.371 340.152 136.654 341.173 137.753C342.194 138.853 343.435 139.747 344.822 140.382H344.829Z" fill="#526CB8"/>
<path d="M340.192 191.608C345.327 195.235 367.102 196.876 367.102 196.876C367.102 196.876 359.086 177.464 353.946 173.837C352.725 172.96 351.335 172.323 349.856 171.962C348.376 171.6 346.837 171.523 345.325 171.733C343.814 171.943 342.362 172.437 341.051 173.186C339.741 173.935 338.599 174.924 337.691 176.097C336.782 177.27 336.126 178.603 335.76 180.019C335.394 181.436 335.325 182.907 335.557 184.349C335.789 185.791 336.317 187.175 337.112 188.421C337.906 189.667 338.951 190.75 340.186 191.608H340.192Z" fill="#526CB8"/>
<path d="M368.431 492H301.414C299.825 491.995 298.302 490.329 297.179 487.366C296.056 484.403 295.424 480.385 295.422 476.195V219.805C295.424 215.615 296.056 211.597 297.179 208.634C298.302 205.671 299.825 204.005 301.414 204H368.431C370.02 204.005 371.542 205.671 372.666 208.634C373.789 211.597 374.421 215.615 374.422 219.805V476.195C374.421 480.385 373.789 484.403 372.666 487.366C371.542 490.329 370.02 491.995 368.431 492V492Z" fill="#786DFF"/>
<path d="M203.369 241.801C203.126 247.204 201.672 252.416 199.168 256.854C196.664 261.292 193.21 264.78 189.193 266.926C173.621 275.376 145.543 292.164 126.659 312.371C97.968 343.108 37.8994 416.307 36.3083 419L29.4225 413.807C29.4225 413.807 65.9384 319.015 104.215 297.599C150.903 208.419 182.854 203 182.854 203C197.917 209.886 204.073 223.336 203.369 241.801Z" fill="#42444A"/>
<path opacity="0.2" d="M205.759 105.418H177.493V159.283H205.759V105.418Z" fill="black"/>
<path d="M174.848 65.0184H170.429V105.418H174.848V65.0184Z" fill="#6C63FF"/>
<path d="M215.474 65.0184H211.055V105.418H215.474V65.0184Z" fill="#6C63FF"/>
<path d="M178.377 67.7117H167.778V73.0982H178.377V67.7117Z" fill="#6C63FF"/>
<path d="M218.125 67.7117H207.527V73.0982H218.125V67.7117Z" fill="#6C63FF"/>
<path d="M191.626 51.552C195.527 51.552 198.69 46.7287 198.69 40.7789C198.69 34.8291 195.527 30.0058 191.626 30.0058C187.725 30.0058 184.562 34.8291 184.562 40.7789C184.562 46.7287 187.725 51.552 191.626 51.552Z" fill="#6C63FF"/>
<path opacity="0.2" d="M191.626 51.552C195.527 51.552 198.69 46.7287 198.69 40.7789C198.69 34.8291 195.527 30.0058 191.626 30.0058C187.725 30.0058 184.562 34.8291 184.562 40.7789C184.562 46.7287 187.725 51.552 191.626 51.552Z" fill="black"/>
<path d="M191.626 47.5091C194.066 47.5091 196.045 44.4959 196.045 40.7789C196.045 37.0619 194.066 34.0487 191.626 34.0487C189.186 34.0487 187.207 37.0619 187.207 40.7789C187.207 44.4959 189.186 47.5091 191.626 47.5091Z" fill="#6C63FF"/>
<path d="M224.311 23.1091C227.578 28.567 231.779 33.8109 237.349 35.7015C239.116 36.2961 241.083 36.635 242.328 38.1451C243.123 39.2603 243.639 40.5361 243.834 41.8729C245.869 51.4272 244.506 61.9803 248.501 70.7082C251.737 77.7773 257.93 82.385 262.852 88.0867C267.775 93.7883 271.64 102.314 268.652 109.52C267.79 111.517 266.455 113.296 264.752 114.717C263.049 116.138 261.025 117.164 258.838 117.713C254.718 118.777 250.418 118.307 246.236 117.624C240.722 116.69 235.109 115.245 230.516 111.678C222.568 105.513 219.208 94.4364 215.051 84.5908C213.097 79.9771 210.501 75.1435 206.207 73.4906C201.285 71.6 195.758 74.757 192.566 79.3885C189.373 84.02 187.954 89.8406 186.411 95.4412C184.668 101.761 182.459 108.331 177.879 112.463C175.892 114.315 173.387 115.577 170.666 116.097C167.944 116.617 165.123 116.373 162.544 115.394C157.441 113.361 153.402 108.224 152.232 102.261C150.421 93.0689 154.759 82.0461 149.438 74.7808C147.372 71.9686 144.216 70.4347 141.97 67.7712C139.2 64.4358 138.186 59.6854 137.968 55.1252C137.502 45.3866 140.999 34.5362 148.865 30.5052C150.969 29.4291 153.315 28.8643 155.163 27.2947C161.387 22.0152 158.456 9.03631 164.897 4.10756C166.764 2.67471 169.104 2.27637 171.357 1.97315C177.667 1.13484 183.934 1.03971 190.282 1.05755C194.377 1.05755 198.602 -0.244494 202.654 0.0408868C213.551 0.825683 219.009 14.2683 224.311 23.1091Z" fill="#3F373B"/>
<path d="M174.904 48.8171C174.904 48.8171 185.77 76.1185 169.707 88.3007C153.645 100.483 166.876 134.556 166.876 134.556L228.755 131.851C228.755 131.851 234.897 93.497 231.586 85.3696C231.586 85.3696 216.943 89.4303 213.638 80.857C210.333 72.2837 207.969 48.8171 207.969 48.8171H174.904Z" fill="#F7C4A7"/>
<path opacity="0.1" d="M210.109 61.9506C209.207 55.5236 208.678 50.2856 208.678 50.2856H175.613C177.14 54.4229 178.2 58.7041 178.775 63.0564C183.411 66.1576 188.981 67.7278 194.636 67.5282C200.292 67.3286 205.725 65.3702 210.109 61.9506V61.9506Z" fill="black"/>
<path d="M192.97 66.0708C207.317 66.0708 218.947 54.9602 218.947 41.2546C218.947 27.549 207.317 16.4384 192.97 16.4384C178.624 16.4384 166.994 27.549 166.994 41.2546C166.994 54.9602 178.624 66.0708 192.97 66.0708Z" fill="#FEBD99"/>
<path d="M177.742 84.4659C177.742 84.4659 146.569 90.1081 142.791 97.5458C139.014 104.984 139.487 130.489 139.487 130.489C139.487 130.489 140.906 172.232 130.04 177.417L89.4199 204.492C89.4199 204.492 60.6058 180.348 53.5236 194.563C46.4415 208.779 87.5342 213.969 87.5342 213.969L133.351 200.889L147.994 191.864C147.994 191.864 154.84 188.707 155.549 181.031L161.692 134.55L186.255 127.784H225.917L231.231 113.289C231.231 113.289 241.033 120.792 239.614 127.784C238.195 134.776 241.973 180.104 241.973 180.104C241.973 180.104 245.041 190.259 251.42 193.184L288.268 205.86C288.268 205.86 327.239 209.468 329.834 193.226C332.429 176.983 291.573 195.479 291.573 195.479L262.286 173.82C262.286 173.82 259.927 164.795 258.981 158.475C258.035 152.155 256.623 125.085 256.623 125.085C256.623 125.085 265.597 96.654 239.62 91.6955L206.083 81.7667L177.742 84.4659Z" fill="#FEBD99"/>
<path opacity="0.1" d="M156.838 90.2151L161.679 120.786C161.679 120.786 156.701 135.002 161.679 148.992C166.658 162.981 155.531 215.099 155.531 215.099C155.531 215.099 213.862 232.935 249.503 212.394C249.503 212.394 223.29 159.598 234.387 142C245.483 124.401 234.567 117.517 234.567 117.517L236.31 85.1675L228.282 82.9141L223.558 114.895C223.558 114.895 190.966 136.554 166.876 117.6L161.679 82.8547L156.838 90.2151Z" fill="black"/>
<path opacity="0.07" d="M190.531 126.554C188.008 122.701 184.074 119.886 179.495 118.655C174.916 117.425 170.022 117.869 165.768 119.901C173.678 125.555 182.397 127.065 190.531 126.554Z" fill="white"/>
<path opacity="0.07" d="M203.917 123.165C206.44 119.313 210.374 116.497 214.953 115.267C219.531 114.037 224.425 114.48 228.68 116.512C220.776 122.166 212.051 123.682 203.917 123.165Z" fill="white"/>
<path opacity="0.1" d="M156.838 90.2151L161.679 119.205C161.679 119.205 156.701 133.421 161.679 147.41C166.658 161.4 155.531 213.517 155.531 213.517C155.531 213.517 213.862 231.354 249.503 210.812C249.503 210.812 223.29 158.017 234.387 140.418C245.483 122.82 234.567 115.935 234.567 115.935L236.272 83.5622L228.244 81.3089L223.521 113.349C223.521 113.349 190.929 135.008 166.838 116.054L161.642 81.3089L156.838 90.2151Z" fill="black"/>
<path d="M156.601 89.9892L161.679 119.657C161.679 119.657 156.701 133.872 161.679 147.862C166.658 161.852 155.531 213.969 155.531 213.969C155.531 213.969 213.862 231.805 249.503 211.264C249.503 211.264 223.29 158.469 234.387 140.87C245.483 123.272 234.567 116.387 234.567 116.387L236.272 84.014L228.244 81.7607L223.521 113.801C223.521 113.801 190.929 135.46 166.838 116.506L161.642 81.7607L156.601 89.9892Z" fill="#4868C7"/>
<path opacity="0.1" d="M166.994 151.358C166.994 151.358 189.193 154.515 192.97 148.879Z" fill="black"/>
<path opacity="0.1" d="M209.051 147.749C209.051 147.749 213.302 151.81 230.304 148.879Z" fill="black"/>
<path opacity="0.1" d="M165.812 84.7988C165.812 84.7988 182.104 87.0522 185.179 85.7026Z" fill="black"/>
<path opacity="0.1" d="M201.714 84.7988C201.714 84.7988 218.007 87.0522 221.081 85.7026Z" fill="black"/>
<path opacity="0.1" d="M159.949 81.844C157.97 86.2376 157.267 91.422 159.37 95.7622C160.976 99.0738 164.113 101.755 164.716 105.358C165.476 109.877 161.972 114.472 163.279 118.872C163.777 120.561 164.94 121.987 166.123 123.325C169.72 127.386 174.499 131.316 180.051 131.001C180.928 122.808 173.516 114.859 175.943 106.957C176.814 104.127 178.856 101.773 180.088 99.0738C182.135 94.5969 181.843 89.4838 181.102 84.6502C180.026 77.6405 177.3 69.0375 170.025 65.7556C166.677 64.2455 161.934 64.1385 160.74 68.2349C160.117 70.4228 161.611 72.4799 161.816 74.6203C162.078 77.3373 161.051 79.4004 159.949 81.844Z" fill="black"/>
<path d="M159.949 81.1662C157.97 85.5599 157.267 90.7443 159.37 95.0844C160.976 98.396 164.113 101.077 164.716 104.68C165.476 109.199 161.972 113.795 163.279 118.194C163.777 119.883 164.94 121.31 166.123 122.647C169.72 126.708 174.499 130.638 180.051 130.323C180.928 122.13 173.516 114.181 175.943 106.28C176.814 103.45 178.856 101.095 180.088 98.396C182.135 93.9191 181.843 88.8061 181.102 83.9724C180.026 76.9628 177.3 68.3597 170.025 65.0779C166.677 63.5677 161.934 63.4607 160.74 67.5571C160.117 69.745 161.611 71.8021 161.816 73.9425C162.078 76.6655 161.051 78.7286 159.949 81.1662Z" fill="#3A3A3A"/>
<path opacity="0.1" d="M161.797 29.0724C161.797 29.0724 196.281 24.5598 197.221 31.3257C198.161 38.0916 228.63 49.162 228.63 49.162L221.075 31.3257L207.141 9.21466C207.141 9.21466 181.625 7.43103 180.455 9.21466C179.285 10.9983 165.812 16.8843 165.812 16.8843L161.797 29.0724Z" fill="black"/>
<path d="M161.797 28.6205C161.797 28.6205 196.281 24.1079 197.221 30.8738C198.161 37.6397 228.63 48.7101 228.63 48.7101L221.075 30.8738L207.141 8.76875C207.141 8.76875 181.625 6.98512 180.455 8.76875C179.285 10.5524 165.812 16.4383 165.812 16.4383L161.797 28.6205Z" fill="#393738"/>
<path opacity="0.1" d="M221.803 76.8439C223.48 78.7622 224.665 81.0281 225.263 83.4611C225.836 85.7858 225.854 88.2174 226.402 90.5481C227.566 95.5125 231.001 99.6862 234.592 103.444C235.754 104.805 237.172 105.946 238.774 106.809C240.417 107.582 242.508 107.742 244.033 106.809C242.589 105.679 241.805 103.949 241.288 102.231C240.562 99.8355 240.238 97.3449 240.33 94.8525C240.486 90.6907 241.761 86.2971 239.95 82.5039C238.905 80.316 236.957 78.6513 234.972 77.153C233.592 76.0816 232.104 75.1455 230.528 74.3587C227.597 72.9615 224.23 72.3491 220.994 72.0459C216.774 71.6297 220.465 75.3099 221.803 76.8439Z" fill="black"/>
<path d="M221.803 76.1601C223.482 78.0819 224.667 80.3521 225.263 82.7893C225.836 85.114 225.854 87.5456 226.402 89.8762C227.566 94.8407 231.001 99.0143 234.592 102.772C235.754 104.133 237.172 105.274 238.774 106.137C240.417 106.91 242.508 107.07 244.033 106.137C242.589 105.007 241.805 103.277 241.288 101.559C240.562 99.1636 240.238 96.6731 240.33 94.1807C240.486 90.0189 241.761 85.6253 239.95 81.8321C238.905 79.6442 236.957 77.9795 234.972 76.4812C233.592 75.4098 232.104 74.4737 230.528 73.6869C227.597 72.2897 224.23 71.6773 220.994 71.3741C216.774 70.9519 220.465 74.6322 221.803 76.1601Z" fill="#3D3539"/>
</svg>
